<?xml version="1.0" encoding="utf-8"?>
<!-- Generator: Adobe Illustrator 26.5.0, SVG Export Plug-In . SVG Version: 6.00 Build 0)  -->
<svg version="1.1" id="Layer_1" xmlns="http://www.w3.org/2000/svg" xmlns:xlink="http://www.w3.org/1999/xlink" x="0px" y="0px"
	 viewBox="0 0 331.5 234.2" style="enable-background:new 0 0 331.5 234.2;" xml:space="preserve">
<style type="text/css">
	.st0{fill:#CFA056;}
	.st1{fill:#819EB4;}
	.st2{fill:#1D1D1B;}
	.st3{fill:none;}
</style>
<g id="Group_17468" transform="translate(-1169.223 -715.844)">
	<path id="Fill_19919" class="st0" d="M1451.3,840.8L1451.3,840.8l-13.8,5.5v4.9l13.8-5.5V840.8z"/>
	<path id="Fill_19920" class="st0" d="M1455.8,829.3L1455.8,829.3l-18.3,7.4v4.9l18.3-7.4V829.3z"/>
	<path id="Fill_19921" class="st0" d="M1437.5,826.8L1437.5,826.8v4.9l28.5-11.5v-4.9L1437.5,826.8z"/>
	<path id="Fill_19922" class="st1" d="M1437.5,841.4L1437.5,841.4c-2,1.8-4.4,2.9-7,3.3c-2.3,0.4-4.6,1.1-6.7,2.2v4.9
		c2.3-1.3,4.7-2.2,7.3-2.6c2.3-0.4,4.5-1.4,6.4-2.8L1437.5,841.4z"/>
	<path id="Fill_19923" class="st1" d="M1437.5,831.7L1437.5,831.7c-2.6,2.3-5.9,3.8-9.3,4.1c-3.2,0.5-6.2,1.6-8.9,3.2v4.9
		c2.9-1.9,6.2-3.1,9.7-3.7c3.1-0.4,6.1-1.7,8.6-3.7V831.7z"/>
	<path id="Fill_19924" class="st1" d="M1437.5,821.9L1437.5,821.9c0,0-4.8,5.2-14.5,6c-5,0.6-9.8,2.5-13.9,5.6v4.9
		c4.4-3.4,9.6-5.4,15.1-6c4.9-0.4,9.6-2.4,13.3-5.6L1437.5,821.9z"/>
	<path id="Fill_19925" class="st2" d="M1217.4,835.9L1217.4,835.9c-2.1,0.5-4.2,0.7-6.4,0.7c-4,0-5.9-2-5.9-6V823l2.5-2.6v10
		c0,2.6,1.1,3.9,3.6,3.9c1.3,0,2.6-0.1,3.8-0.3v-17.8l2.5-0.3v14.3c0.9,0.5,1.9,0.7,2.9,0.7h0.6l0.3,2.4h-0.7c-1,0-2-0.2-3-0.5
		L1217.4,835.9L1217.4,835.9z"/>
	<path id="Fill_19926" class="st2" d="M1235.4,833.3h-0.8c-1.6-0.1-3.1-0.5-4.6-1c-0.7,0.6-1.7,1-2.7,1h-6.4l-0.2-2.4h6.2
		c-2.2-0.9-3.7-3.1-3.6-5.5c-0.1-2.6,2-4.7,4.6-4.8c0.1,0,0.2,0,0.3,0c2.5-0.2,4.8,1.6,5,4.2c0,0.3,0,0.5,0,0.8
		c0,1.7-0.5,3.3-1.4,4.6l-0.1,0.1c1.1,0.4,2.3,0.6,3.5,0.6L1235.4,833.3L1235.4,833.3z M1228.1,823c-1.2-0.1-2.3,0.8-2.4,2
		c0,0.1,0,0.3,0,0.4c0,1.8,1.2,3.2,3.6,4.1l0,0c0.8-1.1,1.3-2.5,1.3-3.9C1230.7,823.9,1229.8,823,1228.1,823z M1230.7,818.2h-2.2
		v-2.9h2.2V818.2z M1227.3,818.2h-2.2v-2.9h2.2L1227.3,818.2L1227.3,818.2z"/>
	<path id="Fill_19927" class="st2" d="M1243.7,833.3h-0.8c-1.4,0-2.9-0.3-4.1-1c-1,0.7-2.3,1.1-3.5,1l-0.2-2.4c2,0,2.9-0.9,2.9-3.1
		v-6.3l2.4-0.4v7.1c0,0.7-0.1,1.4-0.3,2c0.8,0.5,1.8,0.7,2.7,0.7h0.6L1243.7,833.3L1243.7,833.3z M1240.3,818.6h-2.4v-3h2.4V818.6z"
		/>
	<path id="Fill_19928" class="st2" d="M1251.2,833.3L1251.2,833.3c-1.4,0-2.9-0.3-4.2-1c-1,0.7-2.3,1.1-3.5,1l-0.2-2.4
		c2.2,0,2.9-1.1,2.9-3.1v-11.6l2.4-0.3v12.3c0,0.7-0.1,1.4-0.3,2c0.8,0.5,1.8,0.7,2.7,0.7h0.6l0.3,2.4H1251.2z"/>
	<path id="Fill_19929" class="st2" d="M1251.4,830.9L1251.4,830.9c2.1,0,2.9-1.1,2.9-3.1v-11.6l2.4-0.3v12.3c0,3.3-1.6,5.1-5.2,5.1
		L1251.4,830.9z"/>
	<path id="Fill_19930" class="st2" d="M1278.2,833.3h-5.5v-1.9c-0.6,0.1-1.1,0.2-1.7,0.2c-3.2,0-4.8-1.7-4.8-5
		c0-3.3,1.8-5.2,4.9-5.2c1.3,0,2.7,0.2,4,0.6v9h2.9L1278.2,833.3L1278.2,833.3z M1271.2,823.8c-1.6,0-2.4,0.9-2.4,2.8
		c0,1.8,0.7,2.6,2.3,2.6c0.5,0,1-0.1,1.5-0.2l0.2,0v-5c-0.4-0.1-0.8-0.2-1.2-0.1L1271.2,823.8z M1273.8,818.6h-2.1v-2.9h2.1V818.6z
		 M1270.5,818.6h-2.2v-2.9h2.2L1270.5,818.6L1270.5,818.6z"/>
	<path id="Fill_19931" class="st2" d="M1285.5,833.3h-7.6l-0.2-2.4h3.4c-0.5-0.9-0.7-1.9-0.7-3c0-3.3,1.8-5.2,5-5.2
		c2.6-0.3,4.9,1.6,5.1,4.2c0,0.3,0,0.6,0,1C1290.6,831.5,1288.9,833.3,1285.5,833.3z M1285.5,825c-1.6,0-2.6,1.1-2.6,3
		c0,1.9,0.9,2.9,2.5,2.9h0.1c1.9,0,2.6-0.8,2.6-2.9C1288.1,826.1,1287.2,825,1285.5,825L1285.5,825z"/>
	<path id="Fill_19932" class="st2" d="M1296.7,833.3L1296.7,833.3c-1.3,0-3.1-0.5-3.1-3.7v-13.4l2.4-0.3v13.6c0,1.4,0.5,1.5,1,1.5
		h2.8l0.2,2.4H1296.7z"/>
	<path id="Fill_19933" class="st2" d="M1314.5,833.3h-14.7l-0.3-2.4h5.3c-1.4-2.3-2.8-5-3.8-6.9c1.6-1.6,3.8-2.5,6.1-2.6
		c2.2,0,4.3,1,5.7,2.7l-3.4,6.7h4.8L1314.5,833.3L1314.5,833.3z M1307.1,824c-1,0-2.1,0.2-3,0.7l3,5.8l2.8-5.9
		C1309,824.2,1308.1,824,1307.1,824z"/>
	<path id="Fill_19934" class="st2" d="M1314,830.9L1314,830.9c2.1,0,2.9-1.1,2.9-3.1v-11.6l2.4-0.3v12.3c0,3.3-1.6,5.1-5.2,5.1
		L1314,830.9z"/>
	<path id="Fill_19935" class="st2" d="M1322.5,833.3L1322.5,833.3v-17.1l2.4-0.3v17.4H1322.5z"/>
	<path id="Fill_19936" class="st2" d="M1346.5,833.3h-5.4v-1.9c-0.6,0.1-1.1,0.2-1.7,0.2c-3.2,0-4.8-1.7-4.8-5
		c0-3.3,1.8-5.2,4.9-5.2c1.4,0,2.7,0.2,4,0.6v9h2.9L1346.5,833.3L1346.5,833.3z M1339.5,823.8c-1.5,0-2.3,0.9-2.3,2.8
		c0,1.8,0.7,2.6,2.2,2.6c0.5,0,1-0.1,1.5-0.2l0.2,0v-5c-0.4-0.1-0.8-0.2-1.2-0.1L1339.5,823.8z M1342.1,818.6h-2.2v-2.9h2.2V818.6z
		 M1338.7,818.6h-2.2v-2.9h2.2L1338.7,818.6L1338.7,818.6z"/>
	<path id="Fill_19937" class="st2" d="M1354.7,833.3h-0.7c-1.4,0-2.9-0.3-4.2-1c-1,0.7-2.3,1.1-3.5,1l-0.2-2.4c2,0,2.9-0.9,2.9-3.1
		v-6.3l2.5-0.4v7.1c0,0.7-0.1,1.4-0.3,2c0.8,0.5,1.8,0.7,2.7,0.7h0.7L1354.7,833.3L1354.7,833.3z M1351.4,818.6h-5.5l0.6-1.3h1
		c-0.2-0.5-0.3-1-0.3-1.5c-0.1-1.3,0.9-2.5,2.2-2.6c0.1,0,0.1,0,0.2,0c0.9,0,1.8,0.5,2.3,1.2l-0.9,0.9c-0.4-0.4-0.9-0.7-1.4-0.8
		c-0.5,0-1,0.3-1,1.3c0,1,0.4,1.5,1,1.5h2.5L1351.4,818.6L1351.4,818.6z"/>
	<path id="Fill_19938" class="st2" d="M1359.6,839h-2.2v-2.8h2.2V839z M1356.2,839h-2.2v-2.8h2.2L1356.2,839L1356.2,839z
		 M1363,833.3h-0.7c-1.4,0-2.9-0.3-4.2-1c-1,0.7-2.3,1.1-3.5,1l-0.2-2.4c2,0,2.9-0.9,2.9-3.1v-6.3l2.4-0.4v7.1c0,0.7-0.1,1.4-0.3,2
		c0.8,0.5,1.8,0.7,2.7,0.7h0.7L1363,833.3L1363,833.3z"/>
	<path id="Fill_19939" class="st2" d="M1381.5,833.3h-18.7l-0.3-2.4h3.5v-0.7c0-3.6,2-4.4,3.6-4.4s3.6,0.8,3.6,4.4v0.7h2.2v-2.6
		c0.2-2.5-1.7-4.7-4.1-4.9c-0.1,0-0.2,0-0.3,0c-1.2,0-2.4,0.3-3.5,0.7l-0.7-2.2c1.4-0.6,2.8-0.9,4.3-1c1.8,0,3.4,0.6,4.7,1.8
		c1.4,1.4,2.2,3.4,2.1,5.4v2.8h3.3L1381.5,833.3L1381.5,833.3z M1369.6,828.2c-1.1,0-1.2,1-1.2,2v0.7h2.4v-0.7
		C1370.8,829.4,1370.7,828.2,1369.6,828.2z"/>
	<path id="Fill_19940" class="st2" d="M1381,830.9L1381,830.9c2.1,0,2.9-1.1,2.9-3.1v-11.6l2.4-0.3v12.3c0,3.3-1.6,5.1-5.2,5.1
		L1381,830.9z"/>
	<path id="Fill_19941" class="st2" d="M1389.5,833.3L1389.5,833.3v-17.1l2.5-0.3v17.4H1389.5z"/>
	<path id="Fill_19942" class="st2" d="M1210.1,844.3L1210.1,844.3v1.2h-2.4v6.2h-1.2v-6.2h-2.4v-1.2H1210.1z"/>
	<path id="Fill_19943" class="st2" d="M1216,852L1216,852l-2.2-2.6h-1.2v2.3h-1.2v-7.4h2.5c0.7,0,1.4,0.2,2,0.5l0,0
		c0.3,0.2,0.5,0.5,0.7,0.8c0.1,0.3,0.2,0.7,0.2,1.1c0,0.4-0.1,0.7-0.2,1.1c-0.2,0.3-0.3,0.6-0.5,0.8c-0.3,0.2-0.6,0.4-0.9,0.5l1.7,2
		L1216,852L1216,852z M1212.5,845.5v2.8h1.4c0.1,0,0.1,0,0.2,0c0.2,0,0.3,0,0.5-0.1c0.2,0,0.4-0.1,0.5-0.3l0.1-0.1
		c0.3-0.3,0.4-0.7,0.4-1.1c0-0.4-0.1-0.7-0.4-1c-0.2-0.1-0.4-0.2-0.6-0.3c-0.2-0.1-0.5-0.1-0.7-0.1L1212.5,845.5z"/>
	<path id="Fill_19944" class="st2" d="M1218.9,852L1218.9,852l-1.1-0.5l3.6-7.6l3.6,7.6l-1,0.5l-1-2.1h-3.1L1218.9,852L1218.9,852z
		 M1221.5,846.6l-1,2.1h2L1221.5,846.6z"/>
	<path id="Fill_19945" class="st2" d="M1233.1,852.1L1233.1,852.1l-5.7-5.4v5h-1.2v-7.8l5.6,5.5v-5.1h1.2V852.1z"/>
	<path id="Fill_19946" class="st2" d="M1237.5,851.9h-0.1c-0.3,0-0.6-0.1-0.8-0.1c-0.3-0.1-0.5-0.1-0.8-0.3
		c-0.2-0.1-0.5-0.3-0.7-0.5c-0.2-0.2-0.3-0.4-0.5-0.6l1.1-0.5c0,0.1,0.1,0.2,0.2,0.3c0.2,0.1,0.3,0.2,0.4,0.3
		c0.2,0.1,0.3,0.1,0.5,0.2c0.2,0,0.3,0.1,0.5,0.1h0.1c0.2,0,0.4,0,0.6-0.1l0.6-0.2c0.3-0.2,0.6-0.6,0.7-1c0-0.2-0.1-0.5-0.2-0.7
		c-0.2-0.2-0.4-0.3-0.6-0.3c-0.3-0.1-0.6-0.1-1-0.1h-0.4c-0.2,0-0.4-0.1-0.6-0.1c-0.5-0.1-0.9-0.3-1.2-0.6c-0.1-0.2-0.2-0.4-0.3-0.6
		c-0.1-0.3-0.1-0.5-0.1-0.8c0-0.5,0.3-1,0.6-1.4c0.2-0.2,0.4-0.3,0.5-0.4c0.2-0.1,0.4-0.2,0.7-0.3c0.3-0.1,0.6-0.1,0.9-0.1
		c0.3,0,0.6,0.1,0.9,0.1c0.3,0.1,0.6,0.3,0.9,0.5c0.2,0.1,0.4,0.3,0.5,0.6l-1,0.5c-0.1-0.1-0.2-0.2-0.3-0.3
		c-0.2-0.1-0.3-0.1-0.5-0.2c-0.2-0.1-0.4-0.1-0.6-0.1c-0.2,0-0.4,0-0.6,0.1c-0.5,0.1-0.9,0.4-1,0.9c0,0.2,0,0.3,0.1,0.3
		c0,0.1,0.1,0.2,0.1,0.2c0.2,0.2,0.4,0.3,0.6,0.3c0.2,0.1,0.5,0.1,0.8,0.1c0.5,0,1,0.1,1.4,0.2c0.4,0.1,0.7,0.4,1,0.7
		c0.4,0.4,0.6,0.9,0.5,1.5c-0.1,0.4-0.2,0.8-0.5,1.2c-0.2,0.3-0.5,0.5-0.8,0.7c-0.2,0.1-0.5,0.2-0.8,0.3
		C1238.1,851.9,1237.8,851.9,1237.5,851.9"/>
	<path id="Fill_19947" class="st2" d="M1243.2,851.7h-1.2v-7.4h2.5c0.4,0,0.8,0,1.2,0.1l0.1,0c0.3,0.1,0.6,0.2,0.8,0.4
		c0.3,0.2,0.5,0.5,0.6,0.8c0.1,0.3,0.2,0.7,0.2,1c0,0.4-0.1,0.7-0.2,1.1c-0.1,0.3-0.3,0.5-0.5,0.7l-0.1,0.1c-0.3,0.3-0.6,0.5-1,0.5
		c-0.4,0.1-0.8,0.2-1.2,0.3v-0.1h-1.4V851.7z M1243.2,845.5v2.8h1.3c0.1,0,0.2,0,0.2,0c0.2,0,0.3,0,0.5-0.1c0.2,0,0.3-0.1,0.5-0.3
		c0,0,0.1-0.1,0.1-0.1c0.3-0.3,0.4-0.7,0.4-1.1c0-0.4-0.2-0.8-0.5-1c-0.2-0.1-0.3-0.2-0.5-0.3l0,0c-0.2-0.1-0.5-0.1-0.7-0.1
		L1243.2,845.5z"/>
	<path id="Fill_19948" class="st2" d="M1252.3,851.9c-0.5,0-1-0.1-1.5-0.3c-0.5-0.1-0.9-0.4-1.2-0.8c-0.4-0.3-0.7-0.8-0.9-1.2
		c-0.2-0.5-0.3-1-0.3-1.6c0-0.5,0.1-1,0.3-1.5c0.2-0.5,0.5-0.9,0.9-1.2c0.3-0.4,0.7-0.7,1.2-0.9c0.5-0.2,1-0.3,1.5-0.3
		c0.5,0,1.1,0.1,1.6,0.3c0.5,0.2,0.9,0.5,1.2,0.9c0.4,0.3,0.7,0.8,0.8,1.2c0.2,0.5,0.3,1,0.3,1.5c0,0.5-0.1,1.1-0.3,1.6
		c-0.2,0.5-0.4,0.9-0.8,1.2c-0.3,0.4-0.7,0.7-1.2,0.8C1253.4,851.8,1252.9,852,1252.3,851.9z M1252.3,845.3c-0.4,0-0.7,0.1-1,0.2
		c-0.3,0.1-0.6,0.3-0.9,0.6c-0.3,0.2-0.5,0.5-0.6,0.9c-0.1,0.3-0.2,0.7-0.2,1c0,0.4,0.1,0.7,0.2,1.1c0.1,0.3,0.4,0.6,0.6,0.9
		c0.2,0.3,0.5,0.5,0.9,0.6c0.3,0.1,0.7,0.2,1,0.2c0.4,0,0.7-0.1,1.1-0.2c0.3-0.1,0.6-0.3,0.9-0.6c0.3-0.2,0.5-0.5,0.6-0.9
		c0.1-0.3,0.2-0.7,0.2-1.1c0-0.3-0.1-0.7-0.2-1c-0.1-0.3-0.3-0.6-0.6-0.9c-0.2-0.3-0.5-0.5-0.9-0.6
		C1253.1,845.3,1252.7,845.3,1252.3,845.3z"/>
	<path id="Fill_19949" class="st2" d="M1262.2,852L1262.2,852l-2.2-2.6h-1.2v2.3h-1.2v-7.4h2.5c0.7,0,1.4,0.2,2,0.5
		c0.3,0.2,0.5,0.5,0.7,0.8c0.1,0.3,0.2,0.7,0.2,1.1c0,0.4-0.1,0.7-0.2,1.1c-0.1,0.2-0.3,0.5-0.4,0.7l-0.1,0.1
		c-0.3,0.2-0.6,0.4-0.9,0.5l1.7,2L1262.2,852L1262.2,852z M1258.8,845.5v2.8h1.4c0.1,0,0.1,0,0.2,0c0.2,0,0.3,0,0.5-0.1
		c0.2,0,0.3-0.1,0.5-0.3c0,0,0.1-0.1,0.1-0.1c0.3-0.3,0.4-0.7,0.4-1.1c0-0.4-0.1-0.7-0.4-1c-0.2-0.1-0.4-0.2-0.5-0.3
		c-0.2-0.1-0.5-0.1-0.8-0.1H1258.8z"/>
	<path id="Fill_19950" class="st2" d="M1270.1,844.3L1270.1,844.3v1.2h-2.4v6.2h-1.2v-6.2h-2.4v-1.2H1270.1z"/>
	<path id="Fill_19951" class="st2" d="M1278.3,851.9L1278.3,851.9c-0.5,0-1.1-0.1-1.6-0.3c-0.5-0.2-0.9-0.4-1.2-0.8
		c-0.4-0.3-0.7-0.8-0.8-1.2c-0.2-0.5-0.3-1-0.3-1.6c0-0.5,0.1-1,0.3-1.5c0.1-0.2,0.2-0.5,0.3-0.7c0.1-0.2,0.3-0.4,0.5-0.5
		c0.3-0.4,0.8-0.7,1.2-0.9c0.5-0.2,1-0.3,1.6-0.3c0.7,0,1.3,0.2,1.9,0.5c0.3,0.2,0.5,0.3,0.8,0.5c0.2,0.2,0.4,0.5,0.6,0.7l-1,0.6
		c-0.3-0.4-0.6-0.7-1-0.9c-0.7-0.4-1.6-0.4-2.4-0.1c-0.3,0.1-0.6,0.3-0.9,0.6c-0.3,0.2-0.5,0.5-0.6,0.9c-0.1,0.3-0.2,0.7-0.2,1
		c0,0.4,0.1,0.7,0.2,1.1c0.1,0.3,0.4,0.6,0.6,0.9c0.3,0.3,0.6,0.5,0.9,0.6c0.3,0.1,0.7,0.2,1.1,0.2c0.3,0,0.5-0.1,0.8-0.1
		c0.3,0,0.5-0.2,0.7-0.3c0.2-0.1,0.4-0.3,0.5-0.5c0.2-0.2,0.4-0.4,0.5-0.7h-2.8V848h4.2v0.4c0,0.1,0,0.2-0.1,0.3
		c-0.1,0.5-0.2,0.9-0.4,1.3c-0.2,0.4-0.5,0.7-0.9,1c-0.3,0.3-0.8,0.6-1.2,0.7C1279.2,851.9,1278.8,851.9,1278.3,851.9"/>
	<path id="Fill_19952" class="st2" d="M1288.2,845.5h-3.3v1.8h3.2v1.2h-3.2v2.1h3.3v1.2h-4.5v-7.4h4.5V845.5z"/>
	<path id="Fill_19953" class="st2" d="M1296.7,852.1L1296.7,852.1l-5.6-5.4v5h-1.2v-7.8l5.6,5.5v-5.1h1.2L1296.7,852.1z"/>
	<path id="Fill_19954" class="st2" d="M1303.2,845.5h-3.3v1.8h3.2v1.2h-3.2v2.1h3.3v1.2h-4.5v-7.4h4.5V845.5z"/>
	<path id="Fill_19955" class="st2" d="M1309.3,852L1309.3,852l-2.1-2.6h-1.2v2.3h-1.2v-7.4h2.5c0.7,0,1.4,0.2,2,0.5
		c0.2,0.2,0.4,0.5,0.6,0.7l0.1,0.1c0.1,0.3,0.2,0.7,0.2,1.1c0,0.4-0.1,0.7-0.2,1.1c-0.1,0.3-0.3,0.5-0.5,0.8l0,0.1
		c-0.2,0.2-0.5,0.4-0.7,0.5l-0.2,0.1l1.6,2L1309.3,852L1309.3,852z M1305.9,845.5v2.8h1.3c0.1,0,0.2,0,0.2,0c0.2,0,0.3,0,0.5-0.1
		c0.2,0,0.3-0.1,0.5-0.3c0,0,0.1-0.1,0.1-0.1c0.3-0.3,0.4-0.7,0.4-1.1c0-0.4-0.2-0.8-0.5-1c-0.2-0.1-0.3-0.2-0.6-0.3
		c-0.2-0.1-0.5-0.1-0.7-0.1L1305.9,845.5z"/>
	<path id="Fill_19956" class="st2" d="M1312.3,852L1312.3,852l-1-0.5l3.6-7.6l3.6,7.6l-1,0.5l-1-2.1h-3.1L1312.3,852L1312.3,852z
		 M1314.9,846.6L1314.9,846.6l-1,2.1h2L1314.9,846.6z"/>
	<path id="Fill_19957" class="st2" d="M1324.3,851.7h-4.6v-7.4h1.2v6.2h3.4V851.7z"/>
	<path id="Fill_19958" class="st2" d="M1329.8,852L1329.8,852l-1-0.5l3.6-7.6l3.6,7.6l-1.1,0.5l-1-2.1h-3.1L1329.8,852L1329.8,852z
		 M1332.4,846.6L1332.4,846.6l-1,2.1h2L1332.4,846.6z"/>
	<path id="Fill_19959" class="st2" d="M1340.2,851.9L1340.2,851.9c-0.4,0-0.8,0-1.2-0.1c-0.3-0.1-0.6-0.2-0.8-0.3
		c-0.2-0.1-0.4-0.3-0.6-0.5c-0.1-0.2-0.3-0.4-0.3-0.5c-0.1-0.2-0.2-0.4-0.3-0.6c-0.1-0.2-0.1-0.3-0.1-0.5v-4.9h1.2v4.7
		c0,0.1,0.1,0.3,0.1,0.4c0.1,0.1,0.1,0.3,0.2,0.4c0.3,0.6,1,0.9,1.9,0.9c0.8,0.1,1.5-0.2,1.9-0.9c0.1-0.1,0.1-0.3,0.1-0.4
		c0.1-0.1,0.1-0.3,0.1-0.4c0.1-0.1,0.1-0.2,0.1-0.3v-4.3h1.1v4.4c0,0.2,0,0.3-0.1,0.5c0,0.2-0.1,0.4-0.1,0.5
		c-0.1,0.2-0.1,0.4-0.2,0.6c-0.1,0.1-0.2,0.3-0.4,0.5c-0.2,0.2-0.3,0.3-0.5,0.5c-0.3,0.1-0.5,0.3-0.8,0.3
		C1341,851.8,1340.6,851.9,1340.2,851.9"/>
	<path id="Fill_19960" class="st2" d="M1350.8,844.3L1350.8,844.3v1.2h-2.4v6.2h-1.2v-6.2h-2.4v-1.2H1350.8z"/>
	<path id="Fill_19961" class="st2" d="M1357.5,844.3h1.2v7.4h-1.2v-3.5h-4v3.5h-1.2v-7.4h1.2v2.7h4V844.3z"/>
	<path id="Fill_19962" class="st2" d="M1364,851.9c-0.5,0-1-0.1-1.5-0.3c-0.5-0.2-0.9-0.4-1.3-0.8c-0.7-0.7-1.1-1.7-1.2-2.8
		c0-0.5,0.1-1,0.3-1.5c0.2-0.5,0.5-0.9,0.8-1.2c0.4-0.4,0.8-0.7,1.3-0.9c0.5-0.2,1-0.3,1.5-0.3c0.5,0,1,0.1,1.5,0.3
		c0.5,0.2,0.9,0.5,1.3,0.9c0.4,0.3,0.6,0.8,0.8,1.2c0.2,0.5,0.3,1,0.3,1.5c0,0.5-0.1,1.1-0.3,1.6c-0.2,0.5-0.5,0.9-0.8,1.2
		c-0.4,0.4-0.8,0.7-1.3,0.8C1365,851.8,1364.5,852,1364,851.9z M1364,845.3c-0.4,0-0.7,0.1-1.1,0.2c-0.3,0.1-0.6,0.3-0.9,0.6
		c-0.2,0.3-0.4,0.6-0.5,0.9c-0.2,0.3-0.3,0.7-0.3,1c0,0.4,0.1,0.8,0.3,1.1c0.1,0.3,0.3,0.6,0.5,0.8l0,0.1c0.3,0.3,0.6,0.5,0.9,0.6
		c0.3,0.1,0.7,0.2,1.1,0.2c0.4,0,0.7-0.1,1.1-0.2c0.3-0.1,0.6-0.4,0.9-0.6c0.2-0.3,0.4-0.6,0.5-0.9c0.2-0.3,0.3-0.7,0.3-1.1
		c0-0.4-0.1-0.7-0.3-1c-0.1-0.3-0.3-0.6-0.5-0.9c-0.2-0.3-0.5-0.5-0.9-0.6C1364.7,845.3,1364.4,845.3,1364,845.3z"/>
	<path id="Fill_19963" class="st2" d="M1373.8,852L1373.8,852l-2.1-2.6h-1.2v2.3h-1.2v-7.4h2.5c0.7,0,1.4,0.2,2,0.5
		c0.2,0.2,0.5,0.5,0.6,0.8c0.2,0.3,0.3,0.7,0.3,1.1c0,0.4-0.1,0.7-0.2,1.1c-0.2,0.3-0.4,0.6-0.6,0.8c-0.2,0.3-0.5,0.4-0.9,0.5h0
		l1.7,2L1373.8,852L1373.8,852z M1370.5,845.5L1370.5,845.5v2.8h1.3c0.1,0,0.2,0,0.2,0c0.2,0,0.3,0,0.5-0.1c0.2-0.1,0.4-0.2,0.5-0.3
		c0.3-0.3,0.5-0.7,0.5-1.1c0-0.4-0.2-0.7-0.5-1c-0.2-0.1-0.3-0.2-0.5-0.3c-0.2-0.1-0.5-0.1-0.7-0.1L1370.5,845.5L1370.5,845.5z"/>
	<path id="Fill_19964" class="st2" d="M1377.7,851.7h-1.1v-7.4h1.2L1377.7,851.7z"/>
	<path id="Fill_19965" class="st2" d="M1384.9,844.3L1384.9,844.3v1.2h-2.4v6.2h-1.2v-6.2h-2.3v-1.2H1384.9z"/>
	<path id="Fill_19966" class="st2" d="M1393.2,844.7L1393.2,844.7l-3.1,4.2v2.8h-1.2v-2.8l-3.1-4.2l0.9-0.7l2.8,3.7l2.9-3.7
		L1393.2,844.7z"/>
	<path id="Fill_19967" class="st2" d="M1207.9,851.9h-1.6v-6.2h-2.4v-1.6h6.3v1.6h-2.4V851.9z M1204.4,844.5v0.8h2.4v6.2h0.7v-6.2
		h2.4v-0.8H1204.4z"/>
	<path id="Fill_19968" class="st2" d="M1215.9,852.3L1215.9,852.3l-2.2-2.7h-0.9v2.3h-1.6v-7.9h2.7c0.8,0,1.5,0.2,2.1,0.7l0.2,0.2
		c0.2,0.2,0.4,0.4,0.6,0.7c0.2,0.4,0.2,0.8,0.2,1.2c0,0.4-0.1,0.8-0.2,1.1c-0.1,0.3-0.3,0.6-0.6,0.9c-0.2,0.2-0.4,0.4-0.7,0.5l1.7,2
		L1215.9,852.3L1215.9,852.3z M1212.3,849.2h1.5l2.1,2.5l0.6-0.5l-1.7-2.1l0.3-0.1c0.3-0.1,0.6-0.3,0.8-0.5c0.2-0.2,0.4-0.5,0.5-0.8
		c0.1-0.3,0.2-0.6,0.2-0.9c0-0.3-0.1-0.7-0.2-1c-0.1-0.2-0.3-0.4-0.5-0.6l-0.2-0.2c-0.5-0.4-1.2-0.6-1.8-0.6h-2.3v7.1h0.8V849.2z
		 M1214.1,848.5L1214.1,848.5l-0.3,0h-1.5v-3.2h1.6c0.3,0,0.5,0,0.8,0.1c0.2,0.1,0.4,0.2,0.6,0.3c0.3,0.3,0.5,0.7,0.5,1.1
		c0,0.5-0.2,0.9-0.5,1.2c-0.2,0.2-0.4,0.3-0.7,0.4C1214.5,848.5,1214.3,848.5,1214.1,848.5z M1212.7,845.7v2.4h1.2
		c0.1,0,0.1,0,0.2,0c0.1,0,0.3,0,0.4-0.1c0.2,0,0.4-0.1,0.5-0.3c0.2-0.3,0.4-0.6,0.4-0.9c0-0.3-0.1-0.6-0.3-0.8
		c-0.1-0.1-0.3-0.2-0.5-0.2c-0.2,0-0.5-0.1-0.7-0.1H1212.7z"/>
	<path id="Fill_19969" class="st2" d="M1219,852.3L1219,852.3l-1.5-0.6l3.9-8.2l3.9,8.2l-1.4,0.6l-1.1-2.2h-2.9L1219,852.3
		L1219,852.3z M1221.5,844.4l-3.3,7l0.7,0.3l0.9-2h3.4l1,2l0.7-0.3L1221.5,844.4z M1222.8,849h-2.7l1.3-2.8L1222.8,849L1222.8,849z
		 M1221.5,847.1l-0.7,1.4h1.4L1221.5,847.1z"/>
	<path id="Fill_19970" class="st2" d="M1233.3,852.6L1233.3,852.6l-5.7-5.4v4.7h-1.6v-8.5l5.6,5.5v-4.9h1.6V852.6L1233.3,852.6z
		 M1227.2,846.2L1227.2,846.2l5.7,5.4v-7.2h-0.8v5.4l-5.6-5.5v7.1h0.7V846.2z"/>
	<path id="Fill_19971" class="st2" d="M1237.5,852.1h-0.1c-0.3,0-0.6-0.1-0.9-0.1c-0.3-0.1-0.6-0.2-0.8-0.3
		c-0.2-0.1-0.3-0.2-0.4-0.3l-0.2-0.2c-0.2-0.2-0.4-0.4-0.5-0.6l0,0l-0.1-0.2l0.2-0.1l1.4-0.7v0.3l0.1,0.1l0.1,0.1
		c0.1,0.1,0.3,0.2,0.4,0.3c0.1,0.1,0.3,0.1,0.4,0.2l0.3,0l0.2,0h0.1c0.2,0,0.3,0,0.5-0.1l0.6-0.2c0.3-0.2,0.5-0.4,0.6-0.8
		c0-0.2-0.1-0.4-0.2-0.6c-0.1-0.1-0.3-0.2-0.5-0.3c-0.3-0.1-0.6-0.1-0.9-0.1h-0.4c-0.2,0-0.4-0.1-0.7-0.1c-0.5-0.1-0.9-0.3-1.3-0.6
		l0,0c-0.1-0.2-0.3-0.4-0.4-0.7c-0.1-0.3-0.1-0.6-0.1-0.9c0-0.6,0.3-1.1,0.7-1.5c0.2-0.2,0.4-0.4,0.6-0.5c0.2-0.1,0.4-0.2,0.7-0.3
		c0.3-0.1,0.7-0.1,1-0.1c0.3,0,0.6,0.1,0.9,0.1c0.3,0.1,0.7,0.3,1,0.5c0.3,0.1,0.5,0.4,0.6,0.7l0.1,0.2l-1.3,0.7l-0.1-0.1
		c-0.1-0.1-0.2-0.2-0.3-0.2c-0.1-0.1-0.3-0.1-0.5-0.2c-0.2-0.1-0.5-0.1-0.7-0.1c-0.1,0-0.3,0-0.4,0.1c-0.4,0-0.8,0.4-0.8,0.8l0,0.2
		l0,0.1l0.1,0.1c0.1,0.1,0.3,0.2,0.5,0.3c0.2,0,0.5,0.1,0.7,0.1c0.5,0,1,0.1,1.5,0.2c0.4,0.2,0.8,0.4,1.1,0.7
		c0.4,0.5,0.6,1.1,0.5,1.7c-0.1,0.4-0.2,0.9-0.4,1.2c-0.3,0.3-0.6,0.6-1,0.8c-0.2,0.2-0.5,0.3-0.8,0.3l-0.2,0
		C1238.1,852.1,1237.8,852.1,1237.5,852.1z M1235.7,850.2l-0.7,0.3c0.1,0.1,0.2,0.3,0.3,0.4l0.2,0.2c0.1,0.1,0.3,0.2,0.4,0.3
		c0.2,0.1,0.4,0.2,0.6,0.2l0.1,0l0.1,0c0.2,0.1,0.4,0.1,0.7,0.1h0.1c0.2,0,0.4,0,0.6-0.1l0,0l0.2,0c0.2-0.1,0.5-0.2,0.7-0.3
		c0.3-0.2,0.6-0.4,0.8-0.7c0.2-0.3,0.3-0.7,0.4-1c0.1-0.5-0.1-1-0.4-1.3c-0.3-0.3-0.6-0.5-1-0.6c-0.4-0.1-0.9-0.2-1.3-0.2
		c-0.3,0-0.5,0-0.8-0.1c-0.3-0.1-0.5-0.2-0.7-0.4c-0.1-0.1-0.1-0.1-0.2-0.2c-0.1-0.1-0.1-0.3-0.1-0.5c0.1-0.6,0.5-1.1,1.1-1.1
		c0.2-0.1,0.4-0.1,0.7-0.1c0.2,0,0.4,0.1,0.7,0.1l0,0c0.2,0.1,0.3,0.1,0.4,0.2l0.1,0l0.3,0.2l0.6-0.4c-0.1-0.2-0.2-0.3-0.4-0.3
		c-0.3-0.2-0.6-0.3-0.9-0.5c-0.3-0.1-0.5-0.1-0.8-0.1c-0.3,0-0.6,0-0.9,0.1c-0.2,0-0.4,0.1-0.6,0.2c-0.2,0.1-0.4,0.2-0.5,0.4
		c-0.3,0.3-0.5,0.8-0.6,1.3c0,0.3,0.1,0.5,0.1,0.7c0.1,0.2,0.2,0.4,0.3,0.5c0.3,0.3,0.7,0.5,1.1,0.5l0.1,0l0.1,0
		c0.1,0.1,0.3,0.1,0.5,0.1h0.4c0.3,0,0.7,0.1,1,0.1c0.3,0.1,0.5,0.2,0.7,0.4c0.2,0.2,0.3,0.5,0.3,0.8c-0.1,0.5-0.3,0.9-0.8,1.1
		l-0.1,0l-0.6,0.2c-0.2,0.1-0.4,0.1-0.6,0.1h-0.1c-0.1,0-0.2,0-0.3,0l-0.2,0l-0.1,0c-0.2-0.1-0.3-0.1-0.5-0.2l0,0l-0.1,0
		c-0.1-0.1-0.2-0.2-0.4-0.2l-0.1,0l0-0.1L1235.7,850.2L1235.7,850.2z"/>
	<path id="Fill_19972" class="st2" d="M1243.4,851.9h-1.6v-7.9h2.7c0.4,0,0.8,0.1,1.2,0.2c0.3,0.1,0.7,0.3,1,0.5l0,0
		c0.3,0.2,0.5,0.5,0.6,0.9c0.2,0.3,0.2,0.7,0.2,1.1c0,0.4-0.1,0.8-0.2,1.1c-0.1,0.3-0.3,0.6-0.5,0.8l0,0l0,0.1
		c-0.3,0.3-0.7,0.5-1.1,0.6c-0.4,0.1-0.8,0.2-1.2,0.3l-0.2,0v-0.1h-1V851.9z M1242.2,844.5v7.1h0.7v-2.3h1.8v0
		c0.3,0,0.6-0.1,0.9-0.2c0.3-0.1,0.6-0.3,0.9-0.5l0,0c0.2-0.2,0.4-0.5,0.5-0.8c0.1-0.3,0.2-0.6,0.2-0.9c0-0.3,0-0.6-0.2-0.9
		c-0.1-0.3-0.3-0.5-0.6-0.7c-0.2-0.2-0.5-0.3-0.8-0.4c-0.4-0.1-0.7-0.2-1.1-0.2L1242.2,844.5z M1244.6,848.5h-1.6v-3.2h1.6
		c0.3,0,0.5,0,0.7,0.1c0.2,0,0.5,0.2,0.6,0.3c0.4,0.2,0.6,0.7,0.5,1.1c0,0.5-0.2,0.9-0.5,1.2l-0.2,0.1l0,0c-0.2,0.1-0.3,0.2-0.5,0.3
		C1245,848.5,1244.8,848.5,1244.6,848.5z M1243.4,845.7v2.4h1.2c0.2,0,0.4,0,0.6-0.1c0.2,0,0.3-0.1,0.4-0.2l0.1-0.1
		c0.2-0.3,0.3-0.6,0.3-0.9c0-0.3-0.1-0.6-0.4-0.8c-0.1-0.1-0.3-0.2-0.5-0.2c-0.2-0.1-0.4-0.1-0.6-0.1H1243.4z"/>
	<path id="Fill_19973" class="st2" d="M1252.3,852.1c-0.6,0-1.1-0.1-1.6-0.4c-0.5-0.1-1-0.4-1.3-0.9c-0.4-0.3-0.7-0.8-0.9-1.3
		c-0.2-0.5-0.3-1.1-0.3-1.6c0-0.5,0.1-1.1,0.3-1.6c0.2-0.5,0.5-0.9,1-1.3c0.3-0.4,0.8-0.7,1.3-0.9c0.5-0.2,1-0.3,1.6-0.3
		c0.6,0,1.1,0.1,1.6,0.3c0.5,0.2,1,0.5,1.3,0.9c0.4,0.3,0.7,0.8,0.9,1.3c0.2,0.5,0.3,1,0.3,1.6c0,0.6-0.1,1.1-0.3,1.6
		c-0.2,0.5-0.5,0.9-0.9,1.3c-0.3,0.4-0.8,0.7-1.3,0.8C1253.5,852,1252.9,852.2,1252.3,852.1z M1252.3,844.3c-0.5,0-1,0.1-1.4,0.2
		c-0.4,0.2-0.8,0.5-1.1,0.8c-0.4,0.3-0.7,0.7-0.9,1.2c-0.2,0.5-0.3,0.9-0.3,1.4c0,0.5,0.1,1,0.3,1.5c0.2,0.4,0.5,0.8,0.8,1.1
		c0.3,0.4,0.7,0.6,1.1,0.8c0.4,0.2,0.9,0.3,1.4,0.3c0.5,0,1-0.1,1.5-0.3l0,0c0.4-0.1,0.8-0.4,1.1-0.7c0.4-0.3,0.7-0.7,0.9-1.2
		c0.2-0.5,0.3-1,0.3-1.5c0-0.5-0.1-1-0.3-1.4c-0.2-0.4-0.5-0.8-0.8-1.1c-0.3-0.4-0.7-0.7-1.2-0.8
		C1253.3,844.4,1252.8,844.3,1252.3,844.3z M1252.3,851c-0.4,0-0.8-0.1-1.1-0.2c-0.4-0.1-0.7-0.4-1-0.7c-0.3-0.3-0.5-0.6-0.6-0.9
		c-0.1-0.4-0.2-0.8-0.2-1.2c0-0.4,0.1-0.8,0.2-1.1c0.1-0.4,0.4-0.7,0.7-0.9c0.3-0.3,0.6-0.5,1-0.7c0.3-0.1,0.7-0.2,1.1-0.2
		c0.4,0,0.8,0.1,1.2,0.2c0.4,0.1,0.7,0.4,1,0.7c0.3,0.3,0.5,0.6,0.7,1c0.2,0.3,0.2,0.7,0.2,1.1c0,0.4-0.1,0.8-0.2,1.2
		c-0.2,0.4-0.4,0.7-0.7,1c-0.3,0.3-0.6,0.5-0.9,0.7C1253.1,850.9,1252.7,851,1252.3,851L1252.3,851z M1252.3,845.5
		c-0.3,0-0.6,0.1-0.9,0.2c-0.3,0.1-0.6,0.3-0.8,0.6l0,0c-0.2,0.2-0.4,0.5-0.5,0.8c-0.1,0.3-0.2,0.6-0.2,0.9c0,0.3,0.1,0.7,0.2,1
		c0.1,0.3,0.3,0.6,0.6,0.8c0.2,0.3,0.5,0.5,0.8,0.6c0.3,0.1,0.6,0.2,0.9,0.2c0.3,0,0.7-0.1,1-0.2c0.3-0.1,0.6-0.3,0.8-0.6
		c0.2-0.2,0.4-0.5,0.6-0.8c0.1-0.3,0.2-0.7,0.2-1c0-0.3-0.1-0.6-0.2-0.9c-0.1-0.3-0.3-0.6-0.6-0.8c-0.2-0.3-0.5-0.4-0.8-0.6
		C1253,845.5,1252.7,845.5,1252.3,845.5L1252.3,845.5z"/>
	<path id="Fill_19974" class="st2" d="M1262.2,852.3L1262.2,852.3l-2.2-2.7h-0.9v2.3h-1.6v-7.9h2.7c0.8,0,1.5,0.2,2.1,0.7l0.2,0.2
		c0.2,0.2,0.4,0.4,0.6,0.7c0.1,0.4,0.2,0.8,0.2,1.2c0,0.4-0.1,0.8-0.2,1.1c-0.1,0.3-0.3,0.6-0.5,0.8l0,0l0,0.1
		c-0.2,0.2-0.5,0.4-0.7,0.5l1.7,2L1262.2,852.3L1262.2,852.3z M1258.6,849.2h1.5l2.1,2.5l0.6-0.5l-1.7-2.1l0.3-0.1
		c0.3-0.1,0.6-0.3,0.8-0.5l0,0l0,0c0.2-0.2,0.3-0.5,0.5-0.8c0.1-0.3,0.2-0.6,0.2-0.9c0-0.3-0.1-0.7-0.2-1c-0.1-0.2-0.3-0.4-0.4-0.6
		l0,0l-0.2-0.2c-0.5-0.4-1.2-0.6-1.8-0.6h-2.3v7.1h0.7V849.2z M1260.4,848.5L1260.4,848.5l-0.3,0h-1.5v-3.2h1.6c0.3,0,0.5,0,0.8,0.1
		c0.2,0.1,0.5,0.2,0.6,0.3c0.3,0.3,0.5,0.7,0.5,1.1c0,0.5-0.2,0.9-0.5,1.2c-0.2,0.2-0.4,0.3-0.6,0.4l-0.1,0h0
		C1260.7,848.5,1260.6,848.5,1260.4,848.5z M1259,845.7v2.4h1.2c0.1,0,0.1,0,0.2,0c0.1,0,0.3,0,0.4-0.1h0l0.1,0
		c0.2-0.1,0.3-0.2,0.4-0.3c0.2-0.3,0.4-0.6,0.4-0.9c0-0.3-0.1-0.6-0.3-0.8c-0.1-0.1-0.3-0.2-0.5-0.2c-0.2-0.1-0.5-0.1-0.7-0.1
		L1259,845.7z"/>
	<path id="Fill_19975" class="st2" d="M1267.9,851.9h-1.6v-6.2h-2.4v-1.6h6.3v1.6h-2.4V851.9z M1264.4,844.5v0.8h2.4v6.2h0.8v-6.2
		h2.4v-0.8H1264.4z"/>
	<path id="Fill_19976" class="st2" d="M1278.3,852.1c-0.6,0-1.2-0.1-1.7-0.4c-0.5-0.2-0.9-0.5-1.3-0.8c-0.4-0.4-0.7-0.8-0.9-1.3
		c-0.2-0.5-0.3-1.1-0.3-1.6c0-0.5,0.1-1.1,0.4-1.6c0.1-0.3,0.2-0.5,0.4-0.7l0,0c0.1-0.2,0.3-0.4,0.5-0.5c0.3-0.4,0.8-0.7,1.3-0.9
		c0.5-0.2,1.1-0.3,1.7-0.3c0.7,0,1.4,0.2,2,0.5c0.3,0.2,0.6,0.3,0.8,0.6l0,0c0.2,0.2,0.5,0.5,0.6,0.8l0.1,0.2l-1.3,0.8l-0.1-0.2
		c-0.2-0.4-0.6-0.6-0.9-0.8c-0.4-0.2-0.8-0.3-1.2-0.3c-0.3,0-0.7,0.1-1,0.2c-0.3,0.1-0.6,0.3-0.8,0.6c-0.3,0.2-0.5,0.5-0.6,0.8
		c-0.1,0.3-0.2,0.6-0.2,0.9c0,0.3,0.1,0.7,0.2,1c0.1,0.3,0.3,0.6,0.6,0.8c0.2,0.2,0.5,0.4,0.8,0.6c0.3,0.1,0.7,0.2,1,0.2
		c0.2,0,0.5,0,0.7-0.1c0.2,0,0.5-0.1,0.7-0.3l0.1,0c0.2-0.1,0.4-0.3,0.6-0.4l0.2-0.3h-2.7v-1.6h4.6v0.6c0,0.1,0,0.3-0.1,0.4
		c-0.1,0.5-0.2,0.9-0.4,1.3c-0.3,0.4-0.6,0.8-0.9,1.1c-0.3,0.3-0.8,0.6-1.2,0.7C1279.3,852,1278.8,852.1,1278.3,852.1z
		 M1278.3,844.3c-0.5,0-1,0.1-1.5,0.2c-0.4,0.2-0.8,0.5-1.1,0.8l0,0c-0.2,0.1-0.3,0.3-0.4,0.5l0,0c-0.1,0.2-0.2,0.4-0.3,0.6
		c-0.2,0.5-0.3,0.9-0.3,1.4c0,0.5,0.1,1,0.3,1.5c0.2,0.4,0.4,0.8,0.8,1.2c0.3,0.3,0.7,0.6,1.1,0.8c0.5,0.2,1,0.4,1.5,0.3
		c0.4,0,0.9-0.1,1.3-0.3h0c0.4-0.1,0.8-0.3,1.1-0.6c0.3-0.3,0.6-0.6,0.9-1c0.2-0.4,0.3-0.8,0.4-1.2l0-0.1l0.1-0.1v-0.1v-0.2h-3.8
		v0.7h2.9l-0.1,0.3c-0.1,0.2-0.2,0.4-0.4,0.6l0,0.1l0,0c-0.2,0.2-0.4,0.4-0.6,0.5c-0.2,0.2-0.5,0.3-0.8,0.4
		c-0.3,0.1-0.5,0.1-0.8,0.1c-0.4,0-0.8-0.1-1.2-0.2c-0.4-0.1-0.7-0.4-0.9-0.7c-0.3-0.3-0.5-0.6-0.7-1c-0.1-0.4-0.2-0.8-0.2-1.2
		c0-0.4,0.1-0.8,0.2-1.1c0.1-0.4,0.4-0.7,0.7-1c0.3-0.3,0.6-0.5,0.9-0.6c0.4-0.1,0.8-0.2,1.2-0.2c0.5,0,1,0.1,1.4,0.4
		c0.4,0.2,0.7,0.4,1,0.8l0.6-0.4c-0.1-0.2-0.3-0.4-0.4-0.5c-0.2-0.2-0.5-0.4-0.7-0.5C1279.6,844.5,1279,844.3,1278.3,844.3z"/>
	<path id="Fill_19977" class="st2" d="M1288.4,851.9h-4.9v-7.9h4.9v1.6h-3.3v1.4h3.2v1.6h-3.2v1.7h3.3V851.9z M1283.9,844.5v7.1h4.1
		v-0.7h-3.3v-2.5h3.2v-0.8h-3.2v-2.2h3.3v-0.8H1283.9z"/>
	<path id="Fill_19978" class="st2" d="M1297,852.6L1297,852.6l-5.6-5.4v4.7h-1.6v-8.5l5.6,5.5v-4.9h1.6V852.6z M1290.9,846.2
		L1290.9,846.2l5.6,5.4v-7.2h-0.8v5.4l-5.6-5.5v7.1h0.7V846.2z"/>
	<path id="Fill_19979" class="st2" d="M1303.4,851.9h-4.9v-7.9h4.9v1.6h-3.3v1.4h3.2v1.6h-3.2v1.7h3.3L1303.4,851.9L1303.4,851.9z
		 M1298.9,844.5v7.1h4.1v-0.7h-3.3v-2.5h3.2v-0.8h-3.2v-2.2h3.3v-0.8H1298.9z"/>
	<path id="Fill_19980" class="st2" d="M1309.2,852.3L1309.2,852.3l-2.2-2.7h-0.9v2.3h-1.6v-7.9h2.7c0.8,0,1.5,0.2,2.2,0.6
		c0.3,0.3,0.5,0.6,0.7,0.9c0.2,0.4,0.2,0.8,0.2,1.2c0,0.4-0.1,0.8-0.2,1.1c-0.1,0.3-0.3,0.6-0.5,0.8l0,0.1l0,0
		c-0.2,0.2-0.5,0.4-0.7,0.5l1.7,2L1309.2,852.3L1309.2,852.3z M1305.7,849.2h1.5l2,2.5l0.6-0.5l-1.7-2.1l0.4-0.2
		c0.3-0.1,0.5-0.3,0.7-0.4l0,0c0.2-0.2,0.4-0.5,0.5-0.8c0.1-0.3,0.2-0.6,0.2-0.9c0-0.3-0.1-0.7-0.2-1c-0.2-0.3-0.4-0.5-0.6-0.7
		c-0.6-0.4-1.2-0.6-1.9-0.6h-2.2v7.1h0.7V849.2z M1307.5,848.5L1307.5,848.5l-0.3,0h-1.5v-3.2h1.5c0.3,0,0.5,0,0.8,0.1
		c0.2,0.1,0.5,0.2,0.7,0.3c0.3,0.3,0.5,0.7,0.5,1.1c0,0.5-0.2,0.9-0.5,1.2l-0.2,0.1c-0.2,0.1-0.3,0.2-0.5,0.3
		C1307.9,848.5,1307.7,848.5,1307.5,848.5z M1306.1,845.7v2.4h1.1c0.1,0,0.2,0,0.2,0c0.2,0,0.3,0,0.5-0.1c0.2,0,0.3-0.1,0.4-0.2
		l0.1-0.1c0.2-0.3,0.3-0.6,0.3-0.9c0-0.3-0.1-0.6-0.3-0.8c-0.2-0.1-0.3-0.2-0.5-0.2c-0.2-0.1-0.5-0.1-0.7-0.1H1306.1z"/>
	<path id="Fill_19981" class="st2" d="M1312.4,852.3L1312.4,852.3l-1.4-0.6l3.9-8.2l3.9,8.2l-1.4,0.6l-1.1-2.2h-2.9L1312.4,852.3
		L1312.4,852.3z M1316.6,849.7l1,2l0.7-0.3l-3.3-7l-3.3,7l0.7,0.3l1-2L1316.6,849.7z M1316.2,849h-2.7l1.3-2.8L1316.2,849
		L1316.2,849z M1314.9,847.1L1314.9,847.1l-0.7,1.4h1.4L1314.9,847.1z"/>
	<path id="Fill_19982" class="st2" d="M1324.5,851.9h-5v-7.9h1.6v6.3h3.4V851.9z M1320,844.5v7.1h4.2v-0.7h-3.4v-6.3H1320z"/>
	<path id="Fill_19983" class="st2" d="M1329.9,852.3L1329.9,852.3l-1.4-0.6l3.9-8.2l3.9,8.2l-1.4,0.6l-1.1-2.2h-2.9L1329.9,852.3
		L1329.9,852.3z M1334.1,849.7l1,2l0.7-0.3l-3.3-7l-3.3,7l0.7,0.3l1-2L1334.1,849.7z M1333.7,849h-2.7l1.4-2.8L1333.7,849
		L1333.7,849z M1332.4,847.1L1332.4,847.1l-0.7,1.4h1.4C1333.1,848.5,1332.4,847.1,1332.4,847.1z"/>
	<path id="Fill_19984" class="st2" d="M1340.2,852.1c-0.4,0-0.8,0-1.2-0.2c-0.3-0.1-0.6-0.2-0.9-0.4c-0.2-0.1-0.4-0.3-0.6-0.5l0-0.1
		c-0.2-0.3-0.3-0.4-0.4-0.6c-0.1-0.2-0.2-0.4-0.3-0.6l0-0.1l-0.1-0.3l-0.1-0.3l0-0.1v-5.2h1.6v5l0,0.2l0,0.2l0.1,0.2l0.1,0.2
		c0.2,0.5,0.8,0.8,1.7,0.8c0.7,0.1,1.4-0.2,1.7-0.8c0.1-0.1,0.1-0.2,0.1-0.3l0-0.1c0-0.1,0.1-0.2,0-0.3l0-0.1c0-0.1,0.1-0.2,0-0.2
		v-4.6h1.6v4.7c0,0.2,0,0.3-0.1,0.5c0,0.1,0,0.3-0.1,0.4l0,0l0,0.1c0,0.2-0.1,0.3-0.1,0.5l-0.1,0.2l0,0.1l-0.1,0.2
		c-0.1,0.1-0.2,0.3-0.3,0.4c-0.2,0.2-0.4,0.4-0.6,0.5c-0.3,0.1-0.6,0.3-0.9,0.4C1341,852,1340.6,852.1,1340.2,852.1z M1337.1,844.5
		v4.7l0.1,0.3l0.1,0.2l0,0.1l0,0c0.1,0.2,0.1,0.3,0.2,0.5c0.1,0.1,0.2,0.3,0.3,0.5l0,0c0.1,0.2,0.3,0.3,0.5,0.4
		c0.2,0.2,0.5,0.3,0.8,0.3c0.4,0.1,0.7,0.2,1.1,0.1c0.4,0,0.7,0,1.1-0.1l0,0c0.3-0.1,0.5-0.2,0.7-0.3l0,0c0.2-0.1,0.3-0.3,0.5-0.4
		c0.1-0.1,0.2-0.2,0.2-0.3l0.2-0.2l0.1-0.2c0.1-0.1,0.1-0.2,0.1-0.3l0-0.1l0.1-0.2c0-0.1,0.1-0.2,0.1-0.3l0-0.1l0-0.4v-4.3h-0.7v4.2
		c0,0.1,0,0.3-0.1,0.4c0,0.1,0,0.3-0.1,0.4c0,0.1-0.1,0.3-0.1,0.4l0,0.1c-0.4,0.7-1.3,1.1-2.1,1c-1.1,0-1.8-0.3-2.1-1l-0.1-0.2
		l-0.1-0.2l0-0.1l0-0.2l0-0.3v-4.5H1337.1z"/>
	<path id="Fill_19985" class="st2" d="M1348.7,851.9h-1.6v-6.2h-2.4v-1.6h6.3v1.6h-2.4V851.9z M1345.1,844.5v0.8h2.4v6.2h0.7v-6.2
		h2.4v-0.8H1345.1z"/>
	<path id="Fill_19986" class="st2" d="M1353.7,851.9L1353.7,851.9l-1.6,0v-7.9h1.6v2.8h3.6v-2.8h1.6v7.9h-1.6v-3.5h-3.6V851.9z
		 M1353.3,848h4.4v3.5h0.8v-7.1h-0.8v2.8h-4.4v-2.8h-0.7v7.1h0.7V848z"/>
	<path id="Fill_19987" class="st2" d="M1364,852.1c-0.6,0-1.1-0.1-1.6-0.4c-0.5-0.2-1-0.5-1.3-0.8c-0.4-0.4-0.7-0.8-0.9-1.3
		c-0.2-0.5-0.3-1.1-0.4-1.6c0-1.7,1-3.1,2.6-3.8c0.5-0.2,1-0.3,1.6-0.3c0.5,0,1.1,0.1,1.6,0.3c0.5,0.2,1,0.5,1.4,0.9
		c0.4,0.4,0.7,0.8,0.9,1.3c0.2,0.5,0.3,1,0.4,1.6c0,0.6-0.1,1.1-0.4,1.6c-0.2,0.5-0.5,0.9-0.9,1.3c-0.4,0.4-0.8,0.7-1.4,0.9
		C1365.1,852,1364.5,852.2,1364,852.1z M1364,844.3c-0.5,0-1,0.1-1.4,0.2c-0.9,0.4-1.6,1.1-2,2c-0.2,0.4-0.3,0.9-0.3,1.4
		c0,0.5,0.1,1,0.3,1.5c0.2,0.4,0.4,0.8,0.8,1.2c0.3,0.4,0.7,0.6,1.2,0.8c0.4,0.2,0.9,0.4,1.4,0.3c0.5,0,1-0.1,1.4-0.3l0,0
		c0.5-0.1,0.9-0.4,1.2-0.8c0.3-0.3,0.6-0.7,0.8-1.2c0.2-0.5,0.3-1,0.3-1.5c0-0.5-0.1-1-0.3-1.4c-0.2-0.4-0.4-0.8-0.8-1.2
		c-0.4-0.4-0.8-0.6-1.2-0.8C1365,844.4,1364.5,844.3,1364,844.3z M1364,851c-0.4,0-0.8-0.1-1.2-0.2c-0.4-0.1-0.7-0.4-1-0.7l-0.1-0.1
		l0,0c-0.2-0.3-0.4-0.5-0.5-0.8c-0.2-0.4-0.3-0.8-0.3-1.2c0-0.4,0.1-0.8,0.3-1.1c0.1-0.3,0.3-0.7,0.6-0.9c0.3-0.3,0.6-0.5,1-0.7
		c0.4-0.2,0.8-0.2,1.2-0.2c0.4,0,0.8,0.1,1.2,0.2c0.4,0.1,0.7,0.4,0.9,0.7c0.3,0.3,0.4,0.6,0.6,0.9c0.2,0.3,0.3,0.7,0.3,1.1
		c0,0.4-0.1,0.8-0.3,1.2c-0.1,0.3-0.3,0.6-0.6,0.9c-0.3,0.3-0.6,0.5-1,0.7C1364.8,850.9,1364.4,851,1364,851L1364,851z M1364,845.5
		c-0.3,0-0.7,0.1-1,0.2c-0.3,0.1-0.6,0.3-0.8,0.6c-0.2,0.2-0.4,0.5-0.5,0.8l0,0c-0.2,0.3-0.2,0.6-0.2,0.9c0,0.3,0.1,0.7,0.2,1
		c0.1,0.3,0.3,0.6,0.5,0.8l0,0.1c0.2,0.2,0.5,0.4,0.8,0.5c0.3,0.1,0.7,0.2,1,0.2c0.3,0,0.7-0.1,1-0.2c0.3-0.1,0.6-0.3,0.8-0.6
		c0.2-0.2,0.4-0.5,0.5-0.8c0.2-0.3,0.3-0.7,0.3-1c0-0.3-0.1-0.6-0.2-0.9l0,0c-0.1-0.3-0.3-0.6-0.5-0.8c-0.2-0.2-0.5-0.4-0.8-0.6
		C1364.7,845.5,1364.3,845.5,1364,845.5L1364,845.5z"/>
	<path id="Fill_19988" class="st2" d="M1373.8,852.3L1373.8,852.3l-2.2-2.7h-0.9v2.3h-1.6v-7.9h2.7c0.8,0,1.5,0.2,2.2,0.6l0,0
		c0.3,0.2,0.5,0.5,0.7,0.9c0.2,0.4,0.3,0.8,0.3,1.2c0,0.4-0.1,0.8-0.2,1.1c-0.2,0.4-0.4,0.7-0.7,0.9c-0.2,0.2-0.4,0.4-0.7,0.5l1.7,2
		L1373.8,852.3L1373.8,852.3z M1370.2,849.2h1.5l2,2.5l0.6-0.5l-1.8-2.1l0.3-0.1c0.3-0.1,0.6-0.3,0.8-0.5c0.3-0.2,0.5-0.5,0.6-0.8
		c0.1-0.3,0.2-0.6,0.2-0.9c0-0.3-0.1-0.7-0.2-1c-0.1-0.3-0.3-0.6-0.6-0.8c-0.6-0.4-1.2-0.6-1.9-0.6h-2.2v7.1h0.7V849.2z M1372,848.5
		L1372,848.5l-0.3,0h-1.5v-3.2h1.5c0.3,0,0.5,0,0.8,0.1c0.2,0.1,0.4,0.2,0.6,0.3c0.4,0.2,0.6,0.7,0.6,1.1c0,0.5-0.2,0.9-0.6,1.2
		c-0.2,0.2-0.4,0.3-0.6,0.4C1372.4,848.5,1372.2,848.5,1372,848.5z M1370.7,845.7v2.4h1.1c0.1,0,0.2,0,0.2,0c0.2,0,0.3,0,0.5-0.1
		c0.2-0.1,0.3-0.2,0.5-0.3c0.3-0.2,0.4-0.6,0.4-0.9c0-0.3-0.1-0.6-0.4-0.8l0,0c-0.1-0.1-0.3-0.2-0.5-0.2c-0.2-0.1-0.5-0.1-0.7-0.1
		H1370.7z"/>
	<path id="Fill_19989" class="st2" d="M1377.9,851.9h-1.6v-7.9h1.6V851.9z M1376.7,844.5v7.1h0.7v-7.1H1376.7z"/>
	<path id="Fill_19990" class="st2" d="M1382.7,851.9h-1.6v-6.2h-2.3v-1.6h6.3v1.6h-2.4V851.9z M1379.2,844.5v0.8h2.3v6.2h0.8v-6.2
		h2.4v-0.8H1379.2z"/>
	<path id="Fill_19991" class="st2" d="M1390.3,851.9h-1.6v-3l-3.2-4.3l1.2-0.9l2.8,3.7l2.8-3.7l1.2,0.9l-3.2,4.3V851.9z
		 M1386.6,844.3l-0.6,0.4l3.1,4.1v2.7h0.8v-2.7l3-4.1l-0.6-0.4l-2.9,3.8L1386.6,844.3z"/>
</g>
<rect x="-0.4" y="1.9" class="st3" width="331.9" height="232.3"/>
</svg>
