<?xml version="1.0" encoding="utf-8"?>
<!-- Generator: Adobe Illustrator 26.0.1, SVG Export Plug-In . SVG Version: 6.00 Build 0)  -->
<svg version="1.1" id="Layer_1" xmlns="http://www.w3.org/2000/svg" xmlns:xlink="http://www.w3.org/1999/xlink" x="0px" y="0px"
	 viewBox="0 0 607.6 274.6" style="enable-background:new 0 0 607.6 274.6;" xml:space="preserve">
<style type="text/css">
	.st0{fill:#4D4D4F;}
	.st1{fill:#1BAA8F;}
	.st2{fill:#F7941D;}
</style>
<g id="Group_2" transform="translate(-10.222 -32)">
	<path id="Path_1" class="st0" d="M225.1,89c0.3,1,0.3,2.4,0.7,3.5c0,26.6,0,53.5,0,80.1v3.1h60.2c0-0.3,0-0.7,0-0.7
		c-5.6-6.6-8.7-15.4-8-24.1c0-4.5,0-9.4,0-14c-0.7-17.8,13.3-32.9,31.1-33.6l0,0c9.8-0.7,19.6-0.3,29.4,0.3
		c16.4,1.4,29,15,29.4,31.1c0,6.3,0,12.6,0,18.9c0,7.3-2.4,14.3-6.6,19.9c-0.3,0.7-1,1.4-1.4,1.7v0.3c0.7,0,1.7,0,2.8,0
		c15.7,0,31.5,0,46.9,0c16.1,0.3,29.7-12.2,30.1-28.3c0-0.7,0-1,0-1.7c0-4.2,0-8.4,0-12.9H450c-0.3,9.8,1.4,19.6-3.1,29
		c-7,15.4-18.9,24.1-35.7,24.5c-21,0.3-42,0-63.3,0l-0.7-2.4c-7.7,3.5-16.1,2.4-24.1,2.4c-30.8,0-61.6,0-92.3,0c-4.2,0-8.4,0-12.6,0
		c-1,0-1.7,0-3.1,0v-3.5c0-30.1,0-60.5,0-90.6c0-1,0-2.4,0-3.5L225.1,89z M322.6,176.1L322.6,176.1c4.5,0,9.4,0,14,0
		c11.2-0.7,19.9-9.8,20.6-21c0.3-6.6,0.3-13.6,0-20.3c-0.3-10.5-8.4-19.6-18.9-20.6c-10.1-0.7-20.3-1-30.1,0
		c-11.2,0.7-19.6,9.8-19.9,21c-0.3,6.6-0.3,12.9,0,19.6c0.3,12.2,10.5,21.7,22.7,21.3C314.9,176.1,318.8,176.1,322.6,176.1
		L322.6,176.1z"/>
	<path id="Path_2" class="st1" d="M186.2,123.3l-8.7,5.2c-4.9-8-12.9-13.3-22-14.3c-7-1-14.3,0.3-20.3,3.8
		c-14.7,8.7-19.6,28-10.8,42.7c5.6,9.4,15.7,15.4,26.9,15.4c0,0.3,0,0.7,0,1c-3.8,2.8-7.3,5.6-11.2,8c-14-3.8-25.2-15-29-29
		c-1.7-6.6-2.1-14-0.3-21l0,0c4.5-16.8,15.4-27.6,32.5-31.1c17.5-3.5,31.8,2.8,42.3,17.5c0.3,0.3,0.3,0.7,0.7,1
		C186.2,122.9,186.2,123.3,186.2,123.3z"/>
	<path id="Path_3" class="st0" d="M382.4,249.9v-17.1c-0.3,0-1,0.3-1.4,0.7c-8.4,5.6-17.1,1.7-18.9-8c-1-4.9-0.3-10.1,2.1-14.3
		c3.5-7.3,12.6-10.1,19.9-6.6c2.4,1,4.2,3.1,3.8,5.9c0,12.2,0,24.8,0,37.1c0,0.7-0.3,1.7-0.7,2.4L382.4,249.9z M382.1,228.2
		c0-5.6,0-11.2,0-17.1c0.3-2.4-1.4-4.9-3.8-5.2c-0.3,0-0.7,0-1,0c-3.5-0.3-6.6,1.7-8,4.9c-2.4,4.5-2.8,9.8-1,14.3
		C370.2,232.4,376.9,233.8,382.1,228.2L382.1,228.2z"/>
	<path id="Path_4" class="st0" d="M508,89.7h10.5v96.9H508V89.7z"/>
	<path id="Path_5" class="st0" d="M475.1,129.6h10.1c0,1,0,1.7,0,2.8c0,12.2,0,24.1,0,36.4c0,18.9-12.9,35-31.1,39.2
		c-2.8,0.7-5.6,0.7-8.7,1c0-3.1,0-5.6,0-8c0-0.7,0-1.4,0-2.4c1.7-0.3,3.8-0.3,5.6-0.7c13.6-2.8,23.8-14.7,23.8-28.7
		c0-12.6,0-25.2,0-37.4L475.1,129.6z"/>
	<path id="Path_6" class="st2" d="M139.7,185.2c3.8-2.8,7.3-5.2,11.2-8v-0.7l-8-6.6l37.1-9.1l0.3,0.7L163.5,195l-4.9-9.8L132,204.8
		l-5.9-9.1L139.7,185.2z"/>
	<path id="Path_7" class="st0" d="M240.1,215.2l-20.3,3.1c0.3,1.7,0.7,3.8,1,5.6c0.7,3.5,3.8,6.3,7.3,6.6c3.5,0.3,7-1.4,9.1-4.5
		c0.7-1,1-3.1,3.5-2.1c0,1,0,1.7-0.3,2.8c-1.7,6.6-8.7,10.5-15.4,8.7c-3.1-1-5.9-3.1-7.7-6.3c-3.1-5.9-3.1-13.3,0-19.6
		c2.8-5.9,9.8-8.7,15.7-6.3C238,205.5,240.8,210.3,240.1,215.2z M234.1,213.1c0.3-3.5-2.4-6.6-5.9-6.6c-0.3,0-0.3,0-0.7,0
		c-4.2,0.3-7.3,4.2-7,8.4v0.3L234.1,213.1z"/>
	<path id="Path_8" class="st0" d="M426.2,215.6c0-1.7,0-3.5,0-4.9c0-2.1-1-3.8-2.8-4.2c-2.1-0.7-4.5,0-5.6,2.1
		c-0.3,0.7-0.7,1.4-1,2.4c-1,2.4-2.1,2.4-4.5,1c-0.7-2.4,0.3-4.9,2.4-6.3c3.5-2.8,8.4-3.5,12.6-1.7c2.8,1,4.9,3.5,4.9,6.6
		c0,6.6,0,13.3,0,19.9c0,2.1-1,3.8-3.1,4.5c-4.2,1.7-8.7,1.7-13.3,0.7c-2.8-0.7-4.9-3.1-5.2-5.9c-0.7-3.1,0.7-6.6,3.5-8.4
		c3.1-1.4,6.3-2.8,9.8-4.2C424.1,216.3,425.1,215.9,426.2,215.6z M426.5,218.7c-2.4,0.7-4.2,1.4-5.9,2.1c-0.7,0.3-1.7,0.7-2.4,1.4
		c-2.4,1.7-3.5,5.2-1.7,7.7c1.4,2.4,4.5,3.5,7.3,2.4c2.4-0.7,3.1-1.7,3.1-4.9C426.5,224.7,426.5,221.9,426.5,218.7L426.5,218.7z"/>
	<path id="Path_9" class="st0" d="M301,206.5l-3.8-0.3c0-0.7,0-1.4-0.3-2.4l3.5-0.3c0-1.7,0.7-3.5,1.4-5.2c1-1.4,2.4-2.8,3.8-3.8
		l0.7,0.3v8.7h6.3v2.8h-5.9c0,2.1,0,4.2,0,6.3c0,4.9,0,9.4,0,14.3c0,4.5,1,5.2,5.6,5.6c0.7,0,1,0.3,1.4,0.3c0.3,2.1-1.4,2.4-2.4,2.4
		c-3.8,1.4-8.4-1-9.8-4.9c-0.3-0.3-0.3-1.4-0.3-2.4c0-5.9,0-11.9,0-17.8C301,208.9,301,207.9,301,206.5z"/>
	<path id="Path_10" class="st0" d="M268.4,235.2h-5.2v-28.7c4.5-3.1,10.1-4.2,15.4-2.8c1,0.7,1.7,1.7,2.1,2.8c0,0.7-0.7,2.1-1.4,2.1
		c-1,0-2.4-0.3-3.5-1l-0.3-0.3c-1-1.4-3.1-1.7-4.9-1c-1.7,0.7-2.1,2.4-2.1,4.2c0,7,0,14.3,0,21.3V235.2z"/>
	<path id="Path_11" class="st0" d="M333.5,234.8c0-10.1,0-20.3,0-30.1c0-0.3,0-0.7,0.3-1.4h4.9v31.5H333.5z"/>
	<path id="Path_12" class="st0" d="M420.6,100.2v10.1h-10.1v-10.1H420.6z"/>
	<path id="Path_13" class="st0" d="M389.4,99.8h10.1V110h-10.1V99.8z"/>
	<path id="Path_14" class="st0" d="M339.4,198.1h-5.9v-6.3h5.9V198.1z"/>
	<path id="Path_15" class="st0" d="M327.9,89.7H338v10.1h-10.1V89.7z"/>
	<path id="Path_16" class="st0" d="M307.6,89.7h10.1v10.1h-10.1V89.7z"/>
</g>
</svg>
