<?xml version="1.0" encoding="utf-8"?>
<!-- Generator: Adobe Illustrator 22.0.1, SVG Export Plug-In . SVG Version: 6.00 Build 0)  -->
<svg version="1.1" id="Layer_1" xmlns="http://www.w3.org/2000/svg" xmlns:xlink="http://www.w3.org/1999/xlink" x="0px" y="0px"
	 viewBox="0 0 1000 1000" style="enable-background:new 0 0 1000 1000;" xml:space="preserve">
<style type="text/css">
	.st0{fill:#E4E5E6;}
	.st1{fill:#0E7DC2;}
	.st2{fill:#EA6524;}
	.st3{fill:#ED2226;}
	.st4{fill:#EC008C;}
	.st5{fill:#4196A5;}
	.st6{fill:#D3DF4E;}
	.st7{fill:#A41E22;}
	.st8{fill:#EB2126;}
	.st9{fill:#76C044;}
	.st10{fill:#D3DF50;}
	.st11{fill:#F99B1F;}
	.st12{fill:#28A9E1;}
	.st13{fill:#034650;}
	.st14{fill:#A3268E;}
	.st15{fill:#76C043;}
	.st16{fill:#F79F1D;}
	.st17{fill:#005A62;}
</style>
<g>
	<polygon class="st0" points="549.3,403.3 411.5,541.2 273.6,403.3 411.5,265.5 549.3,403.3 	"/>
	<polygon class="st1" points="100.6,463.2 157.6,520.2 159.4,403.5 100.6,463.2 	"/>
	<polygon class="st2" points="216.4,462 157.6,520.2 215.3,577.9 216.4,576.8 216.4,462 	"/>
	<polygon class="st3" points="273,635.6 332.7,576.8 272.8,516.9 272.8,635.4 273,635.6 	"/>
	<polygon class="st4" points="215.3,577.9 216.4,578.9 216.4,576.8 215.3,577.9 	"/>
	<polygon class="st5" points="450.4,343.6 450.5,343.5 390.7,286.8 333.5,343.4 333.5,343.4 450.4,343.6 	"/>
	<polygon class="st4" points="333.4,577.5 332.7,576.8 332.7,576.8 332.7,576.8 333.4,577.5 333.4,577.5 	"/>
	<polygon class="st4" points="391.7,521.5 391.5,521.3 391.5,521.4 391.7,521.5 391.7,521.5 	"/>
	<polygon class="st4" points="272.8,635.8 272.8,636 273.4,636 273,635.6 272.8,635.8 	"/>
	<polygon class="st4" points="392.6,636 391.9,636 392.6,636.7 392.6,636 	"/>
	<polygon class="st2" points="509.9,402.7 509.9,402.7 508.6,445.6 508.6,521.4 566.7,463.3 566.7,463.4 509.9,402.7 	"/>
	<polygon class="st4" points="391.7,521.2 391.5,521.3 391.7,521.5 391.7,521.2 	"/>
	<polygon class="st6" points="273.4,636 391.9,636 333.4,577.5 333.4,577.5 332.7,576.8 273,635.6 273.4,636 	"/>
	<polygon class="st7" points="159.4,282.2 159.2,282 99.9,344 159.4,403.5 159.4,282.2 	"/>
	<polygon class="st4" points="100.1,463.7 100.6,463.2 100.1,462.7 100.1,463.7 	"/>
	<polygon class="st8" points="159.4,282.2 159.3,403.4 159.3,403.4 216.4,345.3 159.4,282.2 	"/>
	<polygon class="st4" points="159.4,281.8 159.2,282 159.4,282.2 159.4,281.8 	"/>
	<path class="st9" d="M246.7,255.9c-17.2-17.2-45.2-17.2-62.4,0l-24.8,26l113.8,0.6L246.7,255.9L246.7,255.9z"/>
	<polygon class="st4" points="273.3,282.4 273.3,282.4 273.3,282.5 273.3,282.4 	"/>
	<polygon class="st10" points="273.3,282.5 273.3,282.4 159.4,281.8 159.4,281.8 159.4,282.2 216.4,345.3 273.3,282.5 	"/>
	<polygon class="st11" points="216.4,462 216.4,576.8 272.2,516.3 217.1,461.2 216.4,462 	"/>
	<polygon class="st7" points="272.8,516.9 272.2,516.3 216.4,576.8 216.4,578.9 272.8,635.4 272.8,516.9 	"/>
	<polygon class="st4" points="272.6,636 272.8,636 272.8,635.8 272.6,636 	"/>
	<polygon class="st12" points="391.7,521.5 391.7,521.5 391.5,521.4 332.7,576.8 333.4,577.5 391.9,636 392.6,636 391.7,521.5 	"/>
	<path class="st9" d="M391.9,636H273.4l28.3,28.3c17,19.1,44.9,19.1,62.2,1.8l28.8-28.8l0-0.7L391.9,636L391.9,636z"/>
	<polygon class="st13" points="333.5,343.4 391.6,402.5 450.4,343.6 333.5,343.4 	"/>
	<polygon class="st4" points="450.5,343.5 450.4,343.6 450.5,343.6 450.5,343.5 	"/>
	<polygon class="st14" points="566.7,463.4 566.7,347 509.9,402.7 566.7,463.4 	"/>
	<polygon class="st7" points="451.1,578.8 508.6,521.4 451.1,460.5 451.1,578.8 	"/>
	<polygon class="st4" points="391.7,521.5 391.7,521.5 391.7,521.5 391.7,521.5 391.7,521.5 	"/>
	<polygon class="st4" points="392.6,636.7 392.9,637 394,636 392.6,636 392.6,636.7 	"/>
	<polygon class="st8" points="449.9,461.7 422.5,488.6 391.7,521.2 391.7,521.5 391.7,521.5 391.7,521.5 450,580 450.5,579.4 
		451.1,578.8 451.1,463 451.1,460.5 449.9,461.7 	"/>
	<polygon class="st4" points="391.7,521.5 391.7,521.5 391.7,521.5 391.7,521.5 	"/>
	<polygon class="st1" points="391.7,521.5 391.7,521.5 392.6,636 394,636 450,580 391.7,521.5 	"/>
	<polygon class="st4" points="392.6,637.4 392.9,637 392.6,636.7 392.6,637.4 	"/>
	<path class="st15" d="M480.6,258.7c-17.2-17.2-45.2-17.2-62.4,0l-27.5,28h117.9L480.6,258.7L480.6,258.7z"/>
	<polygon class="st10" points="508.6,286.8 390.7,286.8 390.7,286.8 450.5,343.5 508.6,286.8 508.6,286.8 	"/>
	<polygon class="st12" points="526.2,304.3 508.6,286.8 508.6,313.5 509.9,402.7 509.9,402.7 566.7,347 526.2,304.3 	"/>
	<polygon class="st14" points="156.4,400.5 99.9,344 100.1,462.7 100.6,463.2 156.4,406.4 159.3,403.4 156.4,400.5 	"/>
	<polygon class="st12" points="216.4,460.5 159.3,403.4 157.6,520.2 216.4,462 217.1,461.2 216.4,460.5 	"/>
	<polygon class="st16" points="466.3,445.6 451.1,460.5 451.1,460.5 508.6,521.4 509.9,402.7 509.9,402.7 466.3,445.6 	"/>
	<polyline class="st1" points="508.6,286.8 508.6,286.8 450.5,343.5 450.5,343.6 509.9,402.7 508.6,313.5 508.6,286.8 	"/>
	<path class="st17" d="M900,529.5c0,0-6.2-3.7-12.1-1.9c-5.9,1.8-6.7,5.2-6.7,5.2v103.5H900V529.5L900,529.5z"/>
	<path class="st17" d="M887.9,677.4c-5.9,1.8-6.7,5.2-6.7,5.2v71.2H900v-74.5C900,679.4,893.8,675.7,887.9,677.4L887.9,677.4z"/>
	<path class="st17" d="M722.3,619.9h-17v-18.4c0-3.9,3-7,6.8-7h3.4c3.8,0,6.8,3.1,6.8,7V619.9L722.3,619.9z M852.9,527.5
		c-5.9,1.8-6.7,5.2-6.7,5.2v67.6c0,15.9-14.3,19.6-21,19.6h-15.4c3-5.4,4.7-12.4,4.7-20.9v-40.8c0,0-6.2-3.7-12.1-1.9
		c-5.9,1.8-6.7,5.2-6.7,5.2v38.9c0,15.9-14.3,19.6-21,19.6h-9.5c0-11,0-28.4,0-32.2c0-5.6,0.3-17.1-6.2-25.1
		c-6.5-8-18.3-12.7-34.7-12.7c-16.4,0-26,4.8-26,11.9c0,7.2,5,9.8,5,9.8s5-5.4,20.7-5.4c15.7,0,21.4,6.3,21.4,12.2
		c0,5.3,0,31.1,0,41.5h-3h-5.7v-23.4c0-8.3-8.2-15.1-18.3-15.1h-9.1c-10.1,0-18.3,6.8-18.3,15.1v23.4h-17.1h-0.2c0-2.9,0-6,0-8.4
		c0-5.6,0.3-17.1-6.2-25.1c-6.5-8-18.3-12.7-34.7-12.7c-16.4,0-26,4.8-26,11.9c0,7.2,5,9.8,5,9.8s5-5.4,20.7-5.4s21.4,6.3,21.4,12.2
		c0,5.6,0,11.1,0,17.7h-30.5h-23.4v16.4h142.6h36.8h50.5c18.9,0,35.3-10.8,35.3-37.2v-69.5C865,529.5,858.8,525.8,852.9,527.5
		L852.9,527.5z"/>
	<path class="st17" d="M803.9,546.3c5.3,0,9.6-4.3,9.6-9.6c0-5.3-4.3-9.6-9.6-9.6c-5.3,0-9.6,4.3-9.6,9.6
		C794.3,542,798.6,546.3,803.9,546.3L803.9,546.3z"/>
	<path class="st17" d="M890.6,668.5c5.3,0,9.6-4.3,9.6-9.6c0-5.3-4.3-9.6-9.6-9.6c-5.3,0-9.6,4.3-9.6,9.6
		C881,664.2,885.3,668.5,890.6,668.5L890.6,668.5z"/>
	<path class="st17" d="M555.9,658.9c0,5.3,4.3,9.6,9.6,9.6c5.3,0,9.6-4.3,9.6-9.6c0-5.3-4.3-9.6-9.6-9.6
		C560.2,649.3,555.9,653.6,555.9,658.9L555.9,658.9z"/>
	<path class="st17" d="M527.3,649.3c-5.3,0-9.6,4.3-9.6,9.6c0,5.3,4.3,9.6,9.6,9.6c5.3,0,9.6-4.3,9.6-9.6
		C536.9,653.6,532.6,649.3,527.3,649.3L527.3,649.3z"/>
	<path class="st17" d="M536.3,643.1H555c16.6,0,30-13.4,30-30v-30.6h-26.4c0,0,0-4,0-7.5c0-0.5,0-0.9,0-1.4c0-2.8,2.2-4.7,5-5.4
		c0.9-0.2,1.9-0.4,2.9-0.4c4.1,0,18.4,0,18.4,0v-17.2c0,0-11.2,0-24.5,0c-4.6,0-8.3,1.8-11.3,4.4c-1.7,1.6-3.2,3.4-4.4,5.4
		c-0.6,1-1.1,1.9-1.5,2.9c-1.6,3.6-2.4,7.3-2.4,10.3c0,0.7,0,1.4,0,2.2c0,9.1,0,25.3,0,25.3h24.2c0,0,0,0.1,0,6.9
		c0,6.8-4.3,17.5-14.4,17.5c-10.2,0-5.3,0-12.2,0c-6.9,0-12.5-9.1-12.5-16.7c0-7.5,0-25.9,0-25.9s-12.8-7.2-18.9,3.2l-0.1,0.1
		c-0.5,2.3-0.8,4.6-0.8,7.1v19.7C506.3,629.7,519.7,643.1,536.3,643.1L536.3,643.1z"/>
	<path class="st17" d="M823.5,739.1c-12.3,0-22.2-10.5-22.2-23.4s9.9-23.4,22.2-23.4c12.2,0,22.2,10.5,22.2,23.4
		S835.8,739.1,823.5,739.1L823.5,739.1z M845.7,655.5c0,8.1,0,21.3,0,29.1c-6.6-5.8-14.4-10-22.8-10c-23.1,0-41.8,18.4-41.8,41.1
		c0,22.7,18.7,41.1,41.8,41.1c22.7,0,41.2-17.9,41.8-40.1l0,0v-0.5c0-0.2,0-0.3,0-0.5l0-0.2l0-65.6
		C864.6,649.9,845.7,643.4,845.7,655.5L845.7,655.5z"/>
	<path class="st17" d="M550.5,675.6h-8.6c-19.4,0-35.2,13.4-35.2,29.9v49.4h20v-47.5c0-8.2,6.6-14.8,14.8-14.8h9.4
		c8.2,0,14.8,6.6,14.8,14.8v47.5h20v-49.4C585.7,689,569.9,675.6,550.5,675.6L550.5,675.6z"/>
	<path class="st17" d="M654.4,740.3c0,0-13.9,1-23.4,1c-9.6,0-11.5-8-11.5-11.3c0-3.4,0.3-10.8,13-10.8c8,0,16.7,0.9,22,1.6
		C654.4,731.3,654.4,740.3,654.4,740.3L654.4,740.3z M635.1,674.7c-18.3,0-28.1,4.4-28.1,11.4c0,6.9,4.7,10.3,4.7,10.3
		c8.4-5.5,16.9-5.6,22-5.7c5-0.1,20.8-0.3,20.8,14.7c0,0.2,0,0.4,0,0.7c-7-0.5-17.4-0.9-28.6-0.5c-20.3,0.7-25.6,15.8-25.6,23.1
		c0,7.4,0.1,25.9,28.3,27.6c28.1,1.6,45.4-1.8,45.4-1.8s0-23.3,0-47.3C673.9,683.1,653.4,674.7,635.1,674.7L635.1,674.7z"/>
	<path class="st17" d="M729.1,675c-8.2,1-15,4.7-19.5,7.8v-32c0,0-6.2-3.7-12.1-1.9c-5.9,1.8-6.7,5.2-6.7,5.2v100.5h18.8v-45
		c0-12,9.6-17.1,18.7-17.1c9.1,0,18,4.6,18,17.1s0,45,0,45h19.3c0,0,0-29.8,0-51.9C765.7,680.4,744.3,673.1,729.1,675L729.1,675z"/>
</g>
</svg>
