<?xml version="1.0" encoding="utf-8"?>
<!-- Generator: Adobe Illustrator 26.0.1, SVG Export Plug-In . SVG Version: 6.00 Build 0)  -->
<svg version="1.1" id="Layer_1" xmlns="http://www.w3.org/2000/svg" xmlns:xlink="http://www.w3.org/1999/xlink" x="0px" y="0px"
	 viewBox="0 0 363.6 229.4" style="enable-background:new 0 0 363.6 229.4;" xml:space="preserve">
<style type="text/css">
	.st0{fill:#58B35C;}
	.st1{fill:#2E88C9;}
	.st2{fill:#27397C;}
	.st3{fill:#CBCBCA;}
	.st4{fill:#26B4BA;}
	.st5{fill:#D1D92C;}
	.st6{fill:#009D8F;}
	.st7{fill:#B3B2B3;}
	.st8{fill:#444C54;}
</style>
<g>
	<g transform="translate(115.804)">
		<g transform="translate(31.706)">
			<circle class="st0" cx="106.5" cy="99.7" r="1.3"/>
			<circle class="st1" cx="105.7" cy="93.8" r="1.8"/>
			<circle class="st2" cx="106.1" cy="86.4" r="2.6"/>
			<circle class="st3" cx="108.1" cy="77.2" r="3.6"/>
			<circle class="st4" cx="113.7" cy="65.6" r="5"/>
		</g>
		<g transform="translate(17.692 4.863)">
			<circle class="st1" cx="114.1" cy="100.6" r="1.3"/>
			<circle class="st2" cx="110.3" cy="95.9" r="1.8"/>
			<circle class="st3" cx="107" cy="89.2" r="2.6"/>
			<circle class="st4" cx="104.1" cy="80.2" r="3.6"/>
			<circle class="st5" cx="103.2" cy="67.4" r="5"/>
		</g>
		<g transform="translate(4.697 17.98)">
			<circle class="st2" cx="124.3" cy="95.7" r="1.3"/>
			<circle class="st3" cx="118.8" cy="93.4" r="1.8"/>
			<circle class="st4" cx="112.6" cy="89.4" r="2.6"/>
			<circle class="st5" cx="105.6" cy="83" r="3.6"/>
			<circle class="st0" cx="98.3" cy="72.3" r="5"/>
		</g>
		<g transform="translate(0 35.844)">
			<circle class="st3" cx="130.7" cy="86.2" r="1.3"/>
			<circle class="st4" cx="124.8" cy="87.1" r="1.8"/>
			<circle class="st5" cx="117.4" cy="86.7" r="2.6"/>
			<circle class="st0" cx="108.2" cy="84.7" r="3.6"/>
			<circle class="st1" cx="96.5" cy="79.1" r="5"/>
		</g>
		<g transform="translate(4.863 48.475)">
			<circle class="st4" cx="131.6" cy="80.1" r="1.3"/>
			<circle class="st5" cx="126.9" cy="83.8" r="1.8"/>
			<circle class="st0" cx="120.1" cy="87.1" r="2.6"/>
			<circle class="st1" cx="111.2" cy="90" r="3.6"/>
			<circle class="st2" cx="98.4" cy="90.9" r="5"/>
		</g>
		<g transform="translate(17.98 50.466)">
			<circle class="st5" cx="126.6" cy="80.9" r="1.3"/>
			<circle class="st0" cx="124.4" cy="86.4" r="1.8"/>
			<circle class="st1" cx="120.3" cy="92.6" r="2.6"/>
			<circle class="st2" cx="114" cy="99.6" r="3.6"/>
			<circle class="st3" cx="103.3" cy="106.8" r="5"/>
		</g>
		<g transform="translate(35.838 49.225)">
			<circle class="st0" cx="117.1" cy="80.4" r="1.3"/>
			<circle class="st1" cx="118.1" cy="86.3" r="1.8"/>
			<circle class="st2" cx="117.7" cy="93.7" r="2.6"/>
			<circle class="st3" cx="115.7" cy="102.9" r="3.6"/>
			<circle class="st4" cx="110" cy="114.5" r="5"/>
		</g>
		<g transform="translate(48.475 45.086)">
			<circle class="st1" cx="111.1" cy="78.8" r="1.3"/>
			<circle class="st2" cx="114.8" cy="83.6" r="1.8"/>
			<circle class="st3" cx="118.1" cy="90.2" r="2.6"/>
			<circle class="st4" cx="121" cy="99.1" r="3.6"/>
			<circle class="st5" cx="121.9" cy="111.9" r="5"/>
		</g>
		<g transform="translate(50.466 39.16)">
			<circle class="st2" cx="111.8" cy="76.6" r="1.3"/>
			<circle class="st3" cx="117.4" cy="78.9" r="1.8"/>
			<circle class="st4" cx="123.6" cy="82.9" r="2.6"/>
			<circle class="st5" cx="130.6" cy="89.1" r="3.6"/>
			<circle class="st0" cx="137.8" cy="99.8" r="5"/>
		</g>
		<g transform="translate(49.225 31.706)">
			<circle class="st3" cx="111.4" cy="75.5" r="1.3"/>
			<circle class="st4" cx="117.3" cy="74.7" r="1.8"/>
			<circle class="st5" cx="124.7" cy="75.1" r="2.6"/>
			<circle class="st0" cx="133.9" cy="77.1" r="3.6"/>
			<circle class="st1" cx="145.5" cy="82.8" r="5"/>
		</g>
		<g transform="translate(45.086 17.697)">
			<circle class="st4" cx="109.8" cy="83.2" r="1.3"/>
			<circle class="st5" cx="114.6" cy="79.4" r="1.8"/>
			<circle class="st0" cx="121.1" cy="76.1" r="2.6"/>
			<circle class="st1" cx="130.1" cy="73.2" r="3.6"/>
			<circle class="st2" cx="142.9" cy="72.2" r="5"/>
		</g>
		<g transform="translate(39.154 4.697)">
			<circle class="st5" cx="107.6" cy="93.3" r="1.3"/>
			<circle class="st0" cx="109.8" cy="87.8" r="1.8"/>
			<circle class="st1" cx="113.9" cy="81.6" r="2.6"/>
			<circle class="st2" cx="120.2" cy="74.6" r="3.6"/>
			<circle class="st3" cx="130.8" cy="67.3" r="5"/>
		</g>
		<circle class="st6" cx="145.6" cy="114.2" r="6.7"/>
		<g transform="translate(30.059 30.059)">
			<circle class="st5" cx="109.3" cy="74.6" r="0.9"/>
			<circle class="st0" cx="105.1" cy="79.1" r="0.9"/>
			<circle class="st1" cx="103.8" cy="85.1" r="0.9"/>
			<circle class="st2" cx="105.6" cy="91" r="0.9"/>
			<circle class="st3" cx="110.1" cy="95.1" r="0.9"/>
			<circle class="st4" cx="116" cy="96.5" r="0.9"/>
			<circle class="st5" cx="122" cy="94.7" r="0.9"/>
			<circle class="st0" cx="126" cy="90.2" r="0.9"/>
			<circle class="st1" cx="127.4" cy="84.1" r="0.9"/>
			<circle class="st2" cx="125.7" cy="78.3" r="0.9"/>
			<circle class="st3" cx="121.2" cy="74.1" r="0.9"/>
			<circle class="st4" cx="115.1" cy="72.8" r="0.9"/>
		</g>
	</g>
	<path class="st7" d="M58.7,142.6c0,1.4-0.6,2.8-1.6,3.8c-1,1-2.4,1.6-3.8,1.6c-1.4,0-2.8-0.6-3.8-1.6c-0.9-1.1-1.4-2.4-1.5-3.8
		v-0.4h1.5v0.4c0,1,0.4,2,1.2,2.8c0.7,0.8,1.7,1.2,2.8,1.2c1,0,2-0.4,2.8-1.2c0.7-0.8,1-1.8,1.1-2.8v-12.8h1.5V142.6z M72.5,136.1
		c1.3,1.3,2.1,3,2,4.9v6.7H73v-2.2l-0.1-0.1h-0.1c-1.3,1.6-3.2,2.5-5.3,2.5c-3.9,0-7-3.1-7-7c0-3.9,3.1-7,7-7
		C69.4,134,71.2,134.8,72.5,136.1z M63.7,137c-2.1,2.2-2.1,5.6,0,7.8c1,1.1,2.5,1.6,4,1.6c1.4,0,2.8-0.5,3.8-1.6
		c2.1-2.2,2.1-5.6,0-7.8c-1-1-2.4-1.6-3.8-1.6C66.2,135.4,64.7,136,63.7,137z M92,135.3c1,0.8,1.5,2.1,1.3,3.3v9.1h-1.4v-9.1
		c-0.1-0.8-0.4-1.6-0.9-2.2c-0.6-0.6-1.4-1-2.2-0.9c-1.7,0-3.1,1.4-3.2,3.1c0,0,0,0.1,0,0.1v9.1h-1.5v-9.1c-0.1-0.8-0.4-1.6-0.9-2.2
		c-0.6-0.6-1.4-1-2.2-0.9c-1.7,0-3.1,1.3-3.2,3c0,0,0,0,0,0v9.1h-1.5v-9c0-1.2,0.5-2.4,1.3-3.3c0.9-0.9,2.1-1.4,3.3-1.3
		c1.6,0,3,0.8,3.8,2.1c1.3-2.1,4.1-2.7,6.2-1.4c0,0,0.1,0,0.1,0.1C91.4,134.9,91.8,135.1,92,135.3L92,135.3z M107.1,136.1
		c1.3,1.3,2.1,3,2,4.9v0.7h-12c-0.1,0-0.3,0.1-0.3,0.3c0.5,2.6,2.8,4.5,5.4,4.5c2.2,0,4.2-1.3,5-3.3h1.6c-0.4,1.4-1.3,2.6-2.5,3.4
		c-1.2,0.9-2.6,1.3-4.1,1.3c-3.9,0-7-3.1-7-7c0-3.9,3.1-7,7-7l0,0C104,134,105.8,134.8,107.1,136.1z M98.8,136.7
		c-0.9,0.8-1.6,1.9-1.8,3.2c0,0.1,0,0.3,0.3,0.3h10.2c0.1,0,0.3-0.1,0.3-0.3c-0.2-1.2-0.9-2.4-1.8-3.2
		C103.7,135,100.8,135,98.8,136.7z M122.9,136.1c1.3,1.3,2.1,3,2,4.9v6.7h-1.5v-2.2l-0.1-0.1h-0.1c-1.3,1.6-3.2,2.5-5.3,2.5
		c-3.9,0-7-3.1-7-7c0-3.9,3.1-7,7-7l0,0C119.8,133.9,121.6,134.7,122.9,136.1z M114.2,137c-2.1,2.2-2.1,5.6,0,7.8
		c1,1,2.4,1.6,3.8,1.6c1.4,0,2.8-0.5,3.8-1.6c2.1-2.2,2.1-5.6,0-7.8c-1-1-2.4-1.6-3.8-1.6C116.6,135.4,115.2,136,114.2,137z
		 M128.3,135.4c0,0.1,0,0.1,0.3,0.1c2.1-2,5.4-1.9,7.4,0.2c0,0,0.1,0.1,0.1,0.1c1,1,1.5,2.3,1.5,3.7v8.3h-1.5v-8.4
		c0-2.1-1.7-3.8-3.8-3.8c-1,0-2,0.4-2.8,1.2c-0.8,0.7-1.2,1.7-1.2,2.8v8.3h-1.5v-18.1h1.5C128.3,129.8,128.3,135.4,128.3,135.4z"/>
	<path class="st8" d="M79.2,122.4c-1.5,0-3-0.4-4.4-1.2c-1.3-1-2.2-2.4-2.6-4h-0.1c-1,2-2.6,3.6-4.5,4.6c-3.4,1.9-7.6,2.1-11.2,0.5
		c-1.6-0.7-3.1-1.7-4.2-3c-1.2-1.3-2.1-2.8-2.8-4.5c-0.7-1.7-1-3.6-1.1-5.4v-1.7c0-1.9,0.4-3.7,1.1-5.4c0.5-1.8,1.5-3.4,2.8-4.7
		c1.2-1.3,2.6-2.3,4.2-3c1.6-0.8,3.4-1.2,5.1-1.2h13.3v18.3c-0.1,1.3,0.3,2.7,1.2,3.7c0.8,0.9,2,1.4,3.2,1.3L79.2,122.4z M61.6,99
		c-1,0-2.1,0.2-3,0.7c-0.9,0.4-1.7,1.1-2.4,1.8c-0.7,0.8-1.2,1.8-1.6,2.8c-0.4,1.1-0.6,2.2-0.7,3.3v1.7c0,1.1,0.2,2.2,0.7,3.2
		c0.4,1,1,1.9,1.7,2.6c0.7,0.7,1.5,1.3,2.4,1.8c0.9,0.5,2,0.7,3,0.7c1.1,0,2.2-0.3,3.2-0.7c1-0.4,1.8-1,2.5-1.8
		c0.7-0.8,1.2-1.7,1.6-2.6c0.4-1,0.6-2.1,0.7-3.2V99H61.6z M56.8,83.1c-0.2-1.4,0.8-2.8,2.2-3h0.8c0.8,0,1.6,0.3,2.2,0.8
		c1.1,1.3,1.1,3.2,0,4.5c-0.6,0.5-1.4,0.8-2.2,0.8c-0.8,0-1.6-0.2-2.2-0.7C57.1,84.8,56.8,83.9,56.8,83.1z M64.1,83.1
		c0-0.8,0.3-1.6,0.8-2.2c0.6-0.5,1.4-0.8,2.2-0.8c1.5-0.2,2.8,0.9,3,2.4v0.8c0.1,0.9-0.2,1.7-0.8,2.4c-0.6,0.5-1.4,0.8-2.2,0.7
		c-0.8,0-1.6-0.3-2.2-0.8C64.3,84.8,64.1,83.9,64.1,83.1L64.1,83.1z"/>
	<path class="st8" d="M113.4,122.4c-1.9,0-3.9-0.1-5.8-0.4c-1.5-0.2-3-0.7-4.4-1.3c-1.1-0.6-2.2-1.3-3-2.2c-0.8-0.9-1.3-2-1.6-3.2
		h-0.1c-0.3,1.2-0.8,2.3-1.6,3.2c-0.8,0.9-1.8,1.7-2.9,2.2c-1.4,0.6-2.9,1.1-4.4,1.3c-1.9,0.3-3.9,0.4-5.8,0.4h-4.6
		c-0.4,0-0.8-0.2-1.1-0.4c-0.4-0.2-0.7-0.6-0.9-0.9c-0.3-0.4-0.5-0.8-0.7-1.2c-0.2-0.4-0.2-0.9-0.3-1.3c0-0.5,0.2-1,0.7-1.3
		c0.6-0.4,1.4-0.6,2.1-0.5h4.6c2.6,0.1,5.2-0.2,7.6-1.1c1.7-0.5,2.8-2.2,2.8-4c0-1.2-0.3-2.3-0.8-3.3c-0.6-1.2-1.4-2.2-2.4-3
		c-1-1-2.2-1.8-3.6-2.4c-1.4-0.7-2.9-1.1-4.5-1.2v-5.5c2-2,4.3-3.7,6.9-4.9c2.8-1.3,5.9-2,9-1.8c3.1-0.1,6.1,0.6,9,1.8
		c2.6,1.2,4.9,2.9,7,4.9v5.3c-1.6,0.1-3.2,0.5-4.6,1.2c-1.3,0.6-2.5,1.4-3.6,2.4c-0.9,0.9-1.7,1.9-2.4,3c-0.5,1-0.9,2.1-0.9,3.3
		c-0.1,1.8,1,3.5,2.8,4c2.4,0.8,5,1.2,7.5,1.1h4.6v5.7L113.4,122.4L113.4,122.4z M98.5,108.8h0.3c0.2-1.2,0.7-2.4,1.3-3.4
		c0.6-1.1,1.4-2.1,2.4-2.9c1-0.9,2-1.6,3.2-2.2c1.1-0.7,2.3-1.1,3.6-1.5v-0.3c-1.3-1-2.7-2-4.2-2.8c-2-0.9-4.1-1.4-6.3-1.3
		c-2.1,0-4.2,0.4-6.2,1.3c-1.5,0.8-2.9,1.7-4.2,2.8v0.3c1.2,0.3,2.4,0.8,3.6,1.3c2.2,1.2,4.1,3,5.4,5.1
		C97.8,106.3,98.2,107.5,98.5,108.8z"/>
	<path class="st8" d="M117.9,116.7c1.2,0.1,2.3-0.4,3-1.3c0.8-1.1,1.2-2.4,1.1-3.7v-5.1c0-1.9,0.4-3.7,1.1-5.4
		c0.6-1.7,1.6-3.3,2.8-4.6c1.2-1.3,2.6-2.3,4.2-3c3.3-1.5,7.1-1.5,10.4,0c1.6,0.7,3,1.8,4.2,3c2.5,2.7,3.9,6.3,4,10v2.6
		c0,1.9-0.3,3.8-1.1,5.5c-0.7,1.6-1.6,3.2-2.8,4.5c-1.2,1.3-2.6,2.3-4.2,2.9c-1.7,0.7-3.5,1-5.3,1.1c-2,0-4.1-0.5-5.8-1.6
		c-1.8-1-3.3-2.7-4.1-4.6h-0.1c-0.4,1.6-1.4,3-2.8,4c-1.3,0.9-2.9,1.3-4.5,1.3c-0.4,0-0.8-0.2-1.1-0.4c-0.4-0.2-0.7-0.6-0.9-0.9
		c-0.3-0.4-0.5-0.8-0.7-1.2c-0.2-0.4-0.2-0.9-0.3-1.3c0-0.5,0.2-1,0.7-1.3C116.4,116.8,117.2,116.7,117.9,116.7z M127.5,109.3
		c0,1.1,0.1,2.2,0.5,3.2c0.4,1,0.9,1.9,1.6,2.8c2.2,2.4,5.7,3.1,8.7,1.8c1-0.4,1.8-1,2.5-1.8c0.7-0.8,1.3-1.8,1.7-2.8
		c0.4-1,0.6-2.1,0.7-3.2v-2.6c0-2.2-0.8-4.4-2.2-6.1c-0.7-0.8-1.5-1.4-2.5-1.8c-1.9-0.9-4.1-0.9-6.1,0c-1,0.4-1.8,1-2.5,1.8
		c-0.7,0.8-1.3,1.7-1.6,2.8c-0.4,1.1-0.5,2.2-0.5,3.3L127.5,109.3z M165.5,122.4c-1.4,0-2.9-0.2-4.2-0.7c-2.3-0.8-4-2.7-4.6-5
		c-0.4-1.4-0.6-2.8-0.5-4.2V73.8h5.5v38.6c-0.1,1.1,0.3,2.2,1.1,3c0.8,0.8,1.8,1.2,2.9,1.1L165.5,122.4L165.5,122.4z"/>
	<path class="st8" d="M193.8,123.2c-1.4-0.3-2.8-0.4-4.2-0.5c-1.7-0.1-3.4-0.3-5-0.3h-19.1c-0.4,0-0.8-0.2-1.1-0.4
		c-0.4-0.2-0.7-0.6-0.9-0.9c-0.3-0.4-0.5-0.8-0.7-1.2c-0.2-0.4-0.2-0.9-0.3-1.3c0-0.5,0.2-1,0.7-1.3c0.6-0.4,1.4-0.6,2.1-0.5h18.9
		c0.8,0,1.6,0,2.4,0.1c0.7,0.1,1.4,0.3,2.1,0.5l0.3-0.3c-0.3-0.3-0.6-0.6-0.8-0.9c-0.2-0.4-0.4-0.8-0.5-1.2c-0.2-0.5-0.2-1-0.3-1.6
		c-0.1-0.7-0.2-1.5-0.1-2.2v-4.9c0-1.2-0.1-2.3-0.4-3.4c-0.2-1-0.7-2-1.3-2.8c-0.6-0.8-1.3-1.5-2.2-1.8c-1-0.4-2-0.6-3-0.7
		c-1.6,0-3.2,0.4-4.6,1.2c-1.4,0.8-2.7,1.9-3.7,3.2l-3.6-3.4c1.5-1.8,3.3-3.4,5.3-4.6c3.7-2.1,8.2-2.4,12.1-0.8
		c1.5,0.6,2.8,1.6,3.8,2.9c1.1,1.3,1.9,2.9,2.4,4.5c0.5,1.9,0.8,3.8,0.8,5.8v5.1c0,1.3,0.1,2.6,0.5,3.8c0.2,0.9,0.7,1.7,1.3,2.4
		l1.1,0.9L193.8,123.2z M176.7,131.3c0-1.7,1.4-3.2,3.2-3.2c1.7,0,3.2,1.4,3.2,3.2s-1.4,3.2-3.2,3.2c-1.5,0.3-2.9-0.7-3.1-2.2
		c0,0,0-0.1,0-0.1V131.3z"/>
</g>
</svg>
