<?xml version="1.0" encoding="UTF-8"?>
<svg id="Layer_1" data-name="Layer 1" xmlns="http://www.w3.org/2000/svg" viewBox="0 0 350 151">
  <defs>
    <style>
      .cls-1 {
        fill: #012169;
        stroke-width: 0px;
      }
    </style>
  </defs>
  <path class="cls-1" d="M127.21,52.49c-2.45,0-4.44-2-4.42-4.45,0-.79.02-1.58.05-2.37.01-.35.49-.82.87-1.02,7.71-4.16,15.44-8.29,23.17-12.43,8.36-4.48,16.72-8.96,25.07-13.45,1.9-1.02,4.19-1.03,6.09,0,16.07,8.63,32.16,17.25,48.26,25.85.67.36.94.74.92,1.52-.02.65-.03,1.3-.03,1.95-.01,2.44-1.98,4.41-4.42,4.41h-95.55ZM175.02,26.47c-4.11,0-7.49,3.35-7.48,7.45,0,4.1,3.38,7.47,7.48,7.45,4.09,0,7.44-3.4,7.42-7.51-.02-4.04-3.39-7.4-7.42-7.4Z"/>
  <path class="cls-1" d="M175.05,80.53c13.48.07,24.23,10.91,24.17,24.38-.06,13.37-10.95,24.14-24.35,24.08-13.48-.06-24.19-10.96-24.11-24.56.08-13.21,11.02-23.97,24.3-23.91ZM154.49,104.69c-.05,11.31,9.03,20.51,20.3,20.58,11.44.07,20.65-9.01,20.7-20.43.06-11.25-9.05-20.52-20.2-20.57-11.58-.05-20.76,8.95-20.81,20.42h0Z"/>
  <path class="cls-1" d="M136.99,91.72v-27.97c-.67,0-.63.03-1.24,0-1.09-.07-1.72-.68-1.76-1.78-.05-1.28-.04-2.56,0-3.84.03-1.1.66-1.79,1.73-1.8,3.81-.04,7.61-.04,11.42,0,1.07,0,1.7.69,1.74,1.79.05,1.24.04,2.49,0,3.73-.03,1.27-.68,1.88-1.99,1.92-.53.02.24,0-.36,0v27.96c.54,0-.21-.01.35,0,1.35.04,1.97.66,2,2.02.02,1.17.03,2.33,0,3.5-.03,1.24-.65,1.91-1.86,1.92-3.73.03-7.46.03-11.18,0-1.21-.01-1.83-.69-1.86-1.92-.03-1.12-.01-2.25,0-3.38.01-1.52.61-2.12,2.11-2.15.5-.01.34,0,.91,0h0Z"/>
  <path class="cls-1" d="M213.01,91.67c.23.02-.27.05-.11.04,3.03-.22,3.22.94,3.12,3.14-.04.81.02,1.63-.01,2.45-.05,1.17-.66,1.85-1.8,1.86-3.77.03-7.53.03-11.3,0-1.14-.01-1.76-.69-1.8-1.86-.03-1.12-.01-2.25,0-3.38.01-1.59.6-2.19,2.17-2.21.46,0,.27,0,.82,0v-27.96c-.58,0-.49.02-1.06,0-1.24-.05-1.89-.66-1.92-1.86-.04-1.24-.04-2.49,0-3.73.03-1.2.7-1.85,1.92-1.86,3.69-.02,7.38-.02,11.07,0,1.27,0,1.88.68,1.91,1.98.02,1.05.01,2.1.01,3.14,0,1.72-.6,2.31-2.3,2.32-.42,0-.19,0-.7,0,0,9.3,0,18.56,0,27.91h0Z"/>
  <path class="cls-1" d="M168.24,77.72c-2.56,1.08-6.28,2.1-8.79,3.15v-17.12c-.69,0-.6.02-1.17,0-1.22-.05-1.88-.66-1.92-1.86-.04-1.24-.03-2.49,0-3.73.03-1.17.66-1.85,1.8-1.85,3.77-.03,7.53-.03,11.29,0,1.14,0,1.76.69,1.8,1.85.04,1.12.02,2.25,0,3.38-.01,1.58-.61,2.19-2.17,2.21-.46,0-.27,0-.85,0v13.97h0Z"/>
  <path class="cls-1" d="M190.57,63.75v17.15c-2.48-1.05-6.2-2.07-8.77-3.16v-13.99c-.68,0-.6.02-1.16,0-1.23-.05-1.88-.67-1.91-1.87-.03-1.24-.03-2.49,0-3.73.03-1.21.68-1.84,1.93-1.85,3.69-.02,7.38-.02,11.06,0,1.27,0,1.88.68,1.91,1.98.02,1.09.01,2.17,0,3.26-.02,1.59-.6,2.17-2.18,2.2-.46.01-.27,0-.88,0h0Z"/>
  <path class="cls-1" d="M152.29,121.49h-27.26c-1.2,0-2.18-.97-2.18-2.18v-3.04c0-1.2.97-2.18,2.18-2.18,4.8,0,16.35,0,22.55-.02.79,0,1.19.2,1.54.99.97,2.18,2.1,4.28,3.17,6.43Z"/>
  <path class="cls-1" d="M197.73,121.47c1.12-2.3,2.22-4.6,3.37-6.86.13-.26.58-.49.88-.49,7.62-.02,15.24-.02,22.93-.02,1.2,0,2.18.97,2.18,2.18v3.02c0,1.2-.97,2.18-2.18,2.18h-27.18Z"/>
  <path class="cls-1" d="M219.35,110.3h-16.76c.14-2.43.27-4.84.41-7.33h16.34c1.2,0,2.18.97,2.18,2.18v2.97c0,1.2-.97,2.18-2.17,2.18Z"/>
  <path class="cls-1" d="M147.4,110.32h-16.74c-1.2,0-2.18-.97-2.18-2.18v-2.98c0-1.2.97-2.18,2.18-2.18h16.28c.15,2.39.3,4.8.45,7.33Z"/>
  <path class="cls-1" d="M171.25,106.06v3.52c0,.41.33.74.74.74h18.94c.41,0,.74.33.74.74v2.24c0,.41-.33.74-.74.74h-18.9c-.41,0-.74.33-.74.74v3.62c0,.57-.62.93-1.11.64-3.59-2.08-7.07-4.1-10.67-6.19-.49-.28-.49-1,0-1.28,3.58-2.08,7.06-4.09,10.63-6.16.5-.29,1.12.07,1.12.64h0Z"/>
  <path class="cls-1" d="M190.47,97.96c-3.6,2.08-7.06,4.09-10.63,6.16-.5.28-1.11-.07-1.11-.64v-3.51c0-.41-.33-.74-.74-.74h-18.94c-.41,0-.74-.33-.74-.74v-2.25c0-.41.33-.74.74-.74h18.89c.41,0,.74-.33.74-.74v-3.62c0-.57.62-.93,1.11-.64,3.6,2.09,7.09,4.11,10.67,6.19.5.29.5,1,0,1.29Z"/>
</svg>